<svg viewBox="0 0 520 286" xmlns="http://www.w3.org/2000/svg"><path d="m0 0h520v286h-520z" fill="none"/><path d="m221 224.15v-162.3h26.23c17.55 0 24.46 8.87 24.46 28.2v32.95c0 8.87-3.15 15.19-8.68 17.16 5.73 1.38 10.66 6.7 10.66 17v39.64c0 19.13-8.89 27.41-26.44 27.41zm33.73-134.7c0-6.71-2.17-9.26-7.5-9.26h-8.08v53h8.28c5.13 0 7.3-2.56 7.3-8.48zm.39 69.22c0-6.7-2-9.46-7.69-9.46h-8.28v56.79h8.08c5.33 0 7.89-3.16 7.89-9.46z" fill="#29826e"/><path d="m324.13 224.15-3-25h-19.89c-1.18 8.48-2.16 16.76-3.16 25h-17.74l21.1-162.3h21.1l19.93 162.3zm-4.94-41.81c-2.76-24.25-5.52-48.91-7.89-73.75-2.36 24.84-5.13 49.5-8.28 73.75z" fill="#ed92a0"/><path d="m382.93 175.33c0-6.75-1.35-10.62-5.59-16-7.14-9.07-14.48-16.4-22.2-27.4-3.85-5.4-4.82-12.16-4.82-20.07v-23.76c0-17.76 8.3-26.25 25.28-26.25 17.76 0 24.51 8.49 24.51 26.25v28.9h-16.59v-28.71c0-5-2.14-8.49-7.54-8.49-5.2 0-7.52 2.5-7.52 8.3v23.54c0 4.24.58 7.53 3.08 10.81 7.15 9.26 15.45 17.75 22.4 27.4 5.4 7.53 6.75 14.48 6.75 25.28v22.78c0 16.79-7.33 26.24-25.09 26.24-17.56 0-25.28-9.45-25.28-26.24v-33.77h17.18v33.77c0 5.21 2.5 8.49 7.52 8.49 5.4 0 7.91-2.89 7.91-8.49z" fill="#79c6b6"/><path d="m413.48 224.15v-162.3h43.78v18.34h-25.64v52.06h17.16v18.34h-17.16v55.41h26.63v18.14z" fill="#9a3040"/><path d="m135.35 224.15h-73.6l36.8-67.4 36.8-67.42 36.79 67.42 36.8 67.4z" fill="#fbe6c6"/><path d="m136.35 89.88 13.07-23.76-2.08-1.14-10.8 19.63v-22.76h-2.38v22.9l-10.81-19.79-2.08 1.14 13 23.8 1.04-.57h.04z" fill="#9a2f41"/><path d="m77.19 203.65-9.18 16.68h18.14 18.13l-9.19-16.68-8.94-16.26z" fill="#29826e"/><path d="m126.4 203.65-9.18 16.68h18.13 18.13l-9.18-16.68-8.95-16.26z" fill="#ed92a0"/><path d="m175.6 203.65-9.18 16.68h18.13 18.14l-9.19-16.68-8.95-16.26z" fill="#79c6b6"/></svg>