<svg viewBox="0 0 191.04 38.4" xmlns="http://www.w3.org/2000/svg"><path d="m0 7.19a7.58 7.58 0 0 1 .62-3.14 6.5 6.5 0 0 1 1.65-2.27 6.83 6.83 0 0 1 2.26-1.32 7.24 7.24 0 0 1 5.08 0 7.39 7.39 0 0 1 2.29 1.32 6.83 6.83 0 0 1 1.62 2.27 7.58 7.58 0 0 1 .62 3.14v1.49h-4.22v-1.49a2.78 2.78 0 0 0 -.85-2.25 3 3 0 0 0 -2-.72 3 3 0 0 0 -2 .72 2.81 2.81 0 0 0 -.84 2.25v15.54a2.84 2.84 0 0 0 .83 2.27 3 3 0 0 0 2 .72 3 3 0 0 0 2-.72 2.81 2.81 0 0 0 .85-2.26v-5.54h-3.34v-3.73h7.57v9.26a7.53 7.53 0 0 1 -.62 3.19 6.59 6.59 0 0 1 -1.62 2.19 7.13 7.13 0 0 1 -2.29 1.36 7.53 7.53 0 0 1 -2.54.46 7.49 7.49 0 0 1 -2.54-.46 6.6 6.6 0 0 1 -2.26-1.36 6.27 6.27 0 0 1 -1.65-2.19 7.53 7.53 0 0 1 -.62-3.19z"/><path d="m17.61 29.68v-21h4.21v2.32a13.65 13.65 0 0 1 2.52-1.82 6.47 6.47 0 0 1 3.06-.66v4.47a3.32 3.32 0 0 0 -1.28-.25 5.05 5.05 0 0 0 -1.42.23 3.65 3.65 0 0 0 -1.39.76 3.94 3.94 0 0 0 -1.07 1.41 4.9 4.9 0 0 0 -.42 2.15v12.39z"/><path d="m37.07 29.68v-2.15h-.07a8 8 0 0 1 -1.67 1.78 4 4 0 0 1 -2.38.62 5.38 5.38 0 0 1 -1.51-.23 4 4 0 0 1 -1.44-.85 4.07 4.07 0 0 1 -1.13-1.67 7.78 7.78 0 0 1 -.44-2.83 15.23 15.23 0 0 1 .29-3.13 5.14 5.14 0 0 1 1.04-2.22 4.46 4.46 0 0 1 2-1.3 10.41 10.41 0 0 1 3.27-.43h.45a2.19 2.19 0 0 1 .46 0 2.41 2.41 0 0 0 .5 0 4.45 4.45 0 0 1 .61 0v-2.1a3.24 3.24 0 0 0 -.45-1.78 1.8 1.8 0 0 0 -1.65-.7 2.37 2.37 0 0 0 -1.51.54 2.54 2.54 0 0 0 -.89 1.57h-4.07a6.73 6.73 0 0 1 1.9-4.55 6 6 0 0 1 2-1.3 6.75 6.75 0 0 1 2.62-.48 7.26 7.26 0 0 1 2.48.42 5.6 5.6 0 0 1 2 1.24 6.09 6.09 0 0 1 1.32 2.06 7.83 7.83 0 0 1 .5 2.9v14.59zm0-9a6.19 6.19 0 0 0 -1.15-.13 4.22 4.22 0 0 0 -2.34.64 2.6 2.6 0 0 0 -1 2.34 3 3 0 0 0 .58 1.94 1.92 1.92 0 0 0 1.61.75 2.09 2.09 0 0 0 1.68-.71 3 3 0 0 0 .59-2z"/><path d="m44.39 38.15v-29.43h4.22v1.9a10.89 10.89 0 0 1 1.61-1.53 4 4 0 0 1 2.4-.62 3.81 3.81 0 0 1 3.67 2 5.51 5.51 0 0 1 .54 1.73 18.36 18.36 0 0 1 .17 2.8v8a29.42 29.42 0 0 1 -.13 3.35 4 4 0 0 1 -1.9 3.1 5.09 5.09 0 0 1 -4.61 0 5 5 0 0 1 -1.67-1.59h-.08v10.29zm8.39-22.61a3.87 3.87 0 0 0 -.49-2.07 1.75 1.75 0 0 0 -1.58-.78 1.88 1.88 0 0 0 -1.53.72 3 3 0 0 0 -.57 1.88v8.15a2.29 2.29 0 0 0 .6 1.63 1.94 1.94 0 0 0 1.5.64 1.75 1.75 0 0 0 1.64-.71 3.4 3.4 0 0 0 .43-1.74z"/><path d="m60.47 29.68v-29.43h4.21v10.5h.09a6.06 6.06 0 0 1 1.59-1.64 4.15 4.15 0 0 1 2.38-.64 4.85 4.85 0 0 1 1.57.27 3.67 3.67 0 0 1 1.4.89 4.44 4.44 0 0 1 1 1.59 6.63 6.63 0 0 1 .38 2.38v16.08h-4.23v-14.51a2.8 2.8 0 0 0 -.54-1.82 1.86 1.86 0 0 0 -1.53-.66 1.78 1.78 0 0 0 -1.65.74 4.22 4.22 0 0 0 -.46 2.15v14.1z"/><path d="m76.55 4.46v-4.21h4.21v4.21zm0 25.22v-21h4.21v21z"/><path d="m88.7 23.64a2 2 0 0 0 .56 1.53 2.06 2.06 0 0 0 1.5.54 1.68 1.68 0 0 0 1.6-.7 3.73 3.73 0 0 0 .47-1.41h4.22a6.06 6.06 0 0 1 -3.68 5.83 6.57 6.57 0 0 1 -2.61.5 6.44 6.44 0 0 1 -3.36-.83 5.6 5.6 0 0 1 -2.75-4.1 15.58 15.58 0 0 1 -.17-2.36v-6.9a15.58 15.58 0 0 1 .17-2.36 5.6 5.6 0 0 1 2.75-4.08 6.44 6.44 0 0 1 3.36-.83 6.74 6.74 0 0 1 2.63.5 5.86 5.86 0 0 1 2 1.36 7 7 0 0 1 1.66 4.84h-4.22a2.66 2.66 0 0 0 -.56-1.88 2.19 2.19 0 0 0 -3 0 2.52 2.52 0 0 0 -.56 1.8z"/><path d="m107.46 29.68v-29.43h6.24a7.25 7.25 0 0 1 5.52 2 7.83 7.83 0 0 1 1.88 5.62v13.75c0 2.75-.67 4.79-2 6.09a7.91 7.91 0 0 1 -5.77 2zm4.22-25.46v21.49h1.94a3.12 3.12 0 0 0 2.52-.89 4.27 4.27 0 0 0 .75-2.79v-14.18a4.43 4.43 0 0 0 -.71-2.68 3 3 0 0 0 -2.56-1z"/><path d="m137 20.79h-8.35v2.85a2 2 0 0 0 .55 1.53 2.1 2.1 0 0 0 1.51.54 1.65 1.65 0 0 0 1.59-.7 3.75 3.75 0 0 0 .48-1.41h4.22a6.06 6.06 0 0 1 -3.68 5.83 6.6 6.6 0 0 1 -2.61.5 6.5 6.5 0 0 1 -3.37-.83 5.64 5.64 0 0 1 -2.12-2.19 5.38 5.38 0 0 1 -.62-1.9 14.38 14.38 0 0 1 -.17-2.36v-6.9a14.38 14.38 0 0 1 .17-2.36 5.38 5.38 0 0 1 .62-1.9 5.64 5.64 0 0 1 2.12-2.19 6.5 6.5 0 0 1 3.37-.83 6.74 6.74 0 0 1 2.63.5 5.86 5.86 0 0 1 2 1.36 6.79 6.79 0 0 1 1.66 4.67zm-8.35-3.31h4.13v-2.39a2.57 2.57 0 0 0 -.56-1.8 2 2 0 0 0 -1.51-.6 2 2 0 0 0 -1.51.6 2.57 2.57 0 0 0 -.55 1.8z"/><path d="m147.76 14.59a2.1 2.1 0 0 0 -.68-1.61 2.23 2.23 0 0 0 -1.47-.54 1.91 1.91 0 0 0 -1.53.64 2.22 2.22 0 0 0 -.53 1.47 2.49 2.49 0 0 0 .28 1.14 2.72 2.72 0 0 0 1.49 1l2.48 1a6 6 0 0 1 3.25 2.48 6.88 6.88 0 0 1 .89 3.43 6.27 6.27 0 0 1 -.48 2.46 6.62 6.62 0 0 1 -1.3 2 6 6 0 0 1 -2 1.36 6.33 6.33 0 0 1 -2.52.5 6.07 6.07 0 0 1 -4.3-1.62 6 6 0 0 1 -1.4-2 7 7 0 0 1 -.58-2.75h4a3.89 3.89 0 0 0 .6 1.61 1.81 1.81 0 0 0 1.67.75 2.52 2.52 0 0 0 1.64-.6 2.07 2.07 0 0 0 .72-1.68 2.39 2.39 0 0 0 -.46-1.48 3.47 3.47 0 0 0 -1.65-1.08l-2-.74a7 7 0 0 1 -3.12-2.21 5.71 5.71 0 0 1 -1.13-3.58 6.11 6.11 0 0 1 .49-2.46 5.92 5.92 0 0 1 1.37-2 5.61 5.61 0 0 1 1.94-1.26 6.52 6.52 0 0 1 2.4-.44 6.18 6.18 0 0 1 2.37.46 5.5 5.5 0 0 1 1.8 1.37 6.36 6.36 0 0 1 1.24 2 6.54 6.54 0 0 1 .45 2.42z"/><path d="m154.66 4.46v-4.21h4.22v4.21zm0 25.22v-21h4.22v21z"/><path d="m166.57 32.12a2.27 2.27 0 0 0 .6 1.4 2 2 0 0 0 1.63.66 1.7 1.7 0 0 0 1.49-.64 2.75 2.75 0 0 0 .45-1.63v-4.13h-.08a5.14 5.14 0 0 1 -1.66 1.59 4.48 4.48 0 0 1 -2.26.56 3.8 3.8 0 0 1 -3.68-2 5.88 5.88 0 0 1 -.53-1.73 18.36 18.36 0 0 1 -.17-2.77v-8a30 30 0 0 1 .13-3.35 4 4 0 0 1 1.93-3.08 4.17 4.17 0 0 1 2.35-.54 4.77 4.77 0 0 1 1.35.17 4 4 0 0 1 1 .45 4.54 4.54 0 0 1 .83.69l.78.84v-1.89h4.27v23.52a7.18 7.18 0 0 1 -.35 2.17 5.46 5.46 0 0 1 -1.14 2 5.7 5.7 0 0 1 -2 1.47 7.09 7.09 0 0 1 -4.84.25 5.32 5.32 0 0 1 -1.9-1.05 5.75 5.75 0 0 1 -1.55-1.89 8.2 8.2 0 0 1 -.85-3zm0-8.89a3.4 3.4 0 0 0 .43 1.77 1.73 1.73 0 0 0 1.63.74 2 2 0 0 0 1.51-.64 2.29 2.29 0 0 0 .6-1.63v-8.18a2.91 2.91 0 0 0 -.58-1.88 1.85 1.85 0 0 0 -1.53-.72 1.73 1.73 0 0 0 -1.57.78 3.87 3.87 0 0 0 -.49 2.07z"/><path d="m178.43 29.68v-21h4.22v2h.08a6.06 6.06 0 0 1 1.59-1.64 4.15 4.15 0 0 1 2.38-.64 4.85 4.85 0 0 1 1.57.27 3.67 3.67 0 0 1 1.4.89 4.44 4.44 0 0 1 1 1.59 6.63 6.63 0 0 1 .33 2.45v16.08h-4.22v-14.51a2.8 2.8 0 0 0 -.54-1.82 1.85 1.85 0 0 0 -1.53-.66 1.78 1.78 0 0 0 -1.65.74 4.22 4.22 0 0 0 -.45 2.15v14.1z"/></svg>