<svg xmlns="http://www.w3.org/2000/svg" viewBox="0 0 219.54 30.84"><title>アセット 25</title><g id="レイヤー_2" data-name="レイヤー 2"><g id="レイヤー_1-2" data-name="レイヤー 1"><path d="M13.1,29.68l-1.4-2.23a9.39,9.39,0,0,1-2.57,1.86,7.16,7.16,0,0,1-3.05.62A5.77,5.77,0,0,1,1.78,28,6.19,6.19,0,0,1,.47,25.9,8,8,0,0,1,0,23.11a7.77,7.77,0,0,1,1.16-4.26,16.58,16.58,0,0,1,2.89-3.39,17.88,17.88,0,0,1-1.84-3.25,8.81,8.81,0,0,1-.72-3.53,6.53,6.53,0,0,1,.37-2.21A5.6,5.6,0,0,1,2.93,4.63a5.17,5.17,0,0,1,1.78-1.2A6.52,6.52,0,0,1,7.23,3a6.16,6.16,0,0,1,2.4.43,5.37,5.37,0,0,1,1.74,1.14,5.27,5.27,0,0,1,1.44,3.76,6.84,6.84,0,0,1-1.28,4,19.5,19.5,0,0,1-3,3.43A14.5,14.5,0,0,1,9.36,17c.29.5.61,1,1,1.57.69,1.19,1.38,2.27,2.07,3.27l2.27-3.1,2.61,1.81-3.14,4.05,3.18,5.05ZM3.72,22.9a4,4,0,0,0,.89,2.62,2.77,2.77,0,0,0,2.25,1.1A3.17,3.17,0,0,0,8.68,26,5.82,5.82,0,0,0,10,24.84L6,18.39a10.56,10.56,0,0,0-1.59,2.05A4.75,4.75,0,0,0,3.72,22.9ZM5.21,8.76a5.4,5.4,0,0,0,.45,2.05A14.25,14.25,0,0,0,6.82,13l.83-.85a7.19,7.19,0,0,0,.82-1.05,6.15,6.15,0,0,0,.62-1.26,4.16,4.16,0,0,0,.25-1.47A2.27,2.27,0,0,0,8.8,6.94a1.79,1.79,0,0,0-1.48-.66,1.82,1.82,0,0,0-1.53.77A2.74,2.74,0,0,0,5.21,8.76Z"/><path d="M20.38,29.68V.25h6.16A8.72,8.72,0,0,1,30,.87a6.38,6.38,0,0,1,2.33,1.65,6.09,6.09,0,0,1,1.3,2.38A9.56,9.56,0,0,1,34,7.69V8.76a9.66,9.66,0,0,1-.19,2,4.82,4.82,0,0,1-.56,1.45,5.77,5.77,0,0,1-2.15,2,4.55,4.55,0,0,1,2.19,2.07A8.18,8.18,0,0,1,34,20v1.65a8.56,8.56,0,0,1-1.88,5.95c-1.26,1.38-3.26,2.07-6,2.07ZM24.59,4.22v8.1h1.9a3.23,3.23,0,0,0,2.84-1.06,5.43,5.43,0,0,0,.72-3.08,4.62,4.62,0,0,0-.81-3,3.58,3.58,0,0,0-2.91-1Zm0,11.82v9.42h1.82a4.48,4.48,0,0,0,2-.37,2.59,2.59,0,0,0,1.09-1A4,4,0,0,0,30,22.49c.05-.61.08-1.27.08-2a12.25,12.25,0,0,0-.13-1.94,3.52,3.52,0,0,0-.49-1.41,2.44,2.44,0,0,0-1.12-.84A5.3,5.3,0,0,0,26.45,16Z"/><path d="M36.08,29.68,42.65.25h3.52l6.57,29.43H48.52l-1.24-6.33H41.54L40.3,29.68ZM46.5,19.39,44.43,8.72h-.08L42.28,19.39Z"/><path d="M68.45,8.72H64.23v-1a4.54,4.54,0,0,0-.68-2.5,2.54,2.54,0,0,0-2.3-1,2.66,2.66,0,0,0-1.4.33,2.74,2.74,0,0,0-.87.82,3.5,3.5,0,0,0-.45,1.22A7.39,7.39,0,0,0,58.4,8c0,.58,0,1.06.06,1.45a3,3,0,0,0,.31,1,2.35,2.35,0,0,0,.73.78,6.43,6.43,0,0,0,1.3.67L64,13.23a8.11,8.11,0,0,1,2.28,1.26,5.41,5.41,0,0,1,1.36,1.67,7.89,7.89,0,0,1,.62,2.25,22.32,22.32,0,0,1,.17,2.88,15,15,0,0,1-.38,3.45,7.21,7.21,0,0,1-1.19,2.71,6,6,0,0,1-2.28,1.81,7.86,7.86,0,0,1-3.43.67,7.45,7.45,0,0,1-2.85-.54,6.84,6.84,0,0,1-2.27-1.49,7.06,7.06,0,0,1-1.51-2.21A6.76,6.76,0,0,1,54,22.94V21.37H58.2v1.32a3.42,3.42,0,0,0,.68,2.09,2.65,2.65,0,0,0,2.29.93,3.67,3.67,0,0,0,1.68-.31,2.28,2.28,0,0,0,.93-.89,3.24,3.24,0,0,0,.39-1.38q.06-.81.06-1.8c0-.77,0-1.41-.08-1.9a3.45,3.45,0,0,0-.33-1.2,2.51,2.51,0,0,0-.77-.75,9.89,9.89,0,0,0-1.26-.62l-3-1.24a6.65,6.65,0,0,1-3.65-2.95,10.17,10.17,0,0,1-.93-4.61,10.79,10.79,0,0,1,.45-3.14A7.14,7.14,0,0,1,56,2.36,6.26,6.26,0,0,1,58.22.64,7.31,7.31,0,0,1,61.42,0a6.91,6.91,0,0,1,2.87.58,7.12,7.12,0,0,1,2.25,1.53,6.39,6.39,0,0,1,1.91,4.55Z"/><path d="M71.59,29.68V.25H84.15v4H75.8v8.64h7.28v4H75.8v8.64h8.35v4.22Z"/><path d="M95,7.15a32,32,0,0,0-1,5.5c-.19,1.9-.28,3.8-.28,5.71A34.45,34.45,0,0,0,94,23.44a37.46,37.46,0,0,0,1,4.69h-.88a14.54,14.54,0,0,1-1.36-2.42,16.91,16.91,0,0,1-.94-2.7,21.56,21.56,0,0,1-.58-2.76,18.5,18.5,0,0,1-.2-2.61,18.17,18.17,0,0,1,.21-2.71,20,20,0,0,1,.62-2.79,17.31,17.31,0,0,1,2.25-5Z"/><path d="M96.52,11.49a4.66,4.66,0,0,1,.39-2,4.16,4.16,0,0,1,1-1.42,4.34,4.34,0,0,1,1.41-.83A4.59,4.59,0,0,1,100.94,7a4.68,4.68,0,0,1,1.59.28,4.78,4.78,0,0,1,1.43.83,4.4,4.4,0,0,1,1,1.42,4.66,4.66,0,0,1,.39,2V21.2a4.62,4.62,0,0,1-.39,2,4.18,4.18,0,0,1-1,1.37,4.48,4.48,0,0,1-1.43.86,4.93,4.93,0,0,1-1.59.28,4.84,4.84,0,0,1-1.59-.28,4.09,4.09,0,0,1-1.41-.86,4,4,0,0,1-1-1.37,4.62,4.62,0,0,1-.39-2Zm2.64,9.71a1.73,1.73,0,0,0,.53,1.41,2,2,0,0,0,2.5,0,1.76,1.76,0,0,0,.53-1.41V11.49a1.76,1.76,0,0,0-.53-1.41,2,2,0,0,0-2.5,0,1.73,1.73,0,0,0-.53,1.41Z"/><path d="M107.86,25.54v-11h-1.29V12.45h1.29V10.66a4.06,4.06,0,0,1,.29-1.61,2.91,2.91,0,0,1,.77-1.1A2.69,2.69,0,0,1,110,7.33a4.41,4.41,0,0,1,1.26-.18h1.21V9.63h-1.19c-.52,0-.77.3-.77.91v1.91h2v2.06h-2v11Z"/><path d="M113.6,25.54v-11h-1.3V12.45h1.3V10.66a4.07,4.07,0,0,1,.28-1.61,3.05,3.05,0,0,1,.78-1.1,2.56,2.56,0,0,1,1.07-.62A4.34,4.34,0,0,1,117,7.15h1.21V9.63H117c-.52,0-.78.3-.78.91v1.91h2v2.06h-2v11Z"/><path d="M119,9.79V7.15h2.64V9.79Zm0,15.75V12.45h2.64V25.54Z"/><path d="M126.59,21.77a1.28,1.28,0,0,0,.35,1,1.3,1.3,0,0,0,.94.33,1,1,0,0,0,1-.44,2.29,2.29,0,0,0,.29-.87h2.64a3.81,3.81,0,0,1-1.06,2.79,3.86,3.86,0,0,1-1.24.85,4.05,4.05,0,0,1-1.63.31,3.94,3.94,0,0,1-2.1-.52,3.44,3.44,0,0,1-1.72-2.56,9.37,9.37,0,0,1-.11-1.47V16.84a9.37,9.37,0,0,1,.11-1.47,3.44,3.44,0,0,1,1.72-2.56,3.94,3.94,0,0,1,2.1-.52,4.13,4.13,0,0,1,1.64.31,3.69,3.69,0,0,1,1.25.85,4.41,4.41,0,0,1,1,3h-2.64a1.65,1.65,0,0,0-.35-1.18,1.38,1.38,0,0,0-1.88,0,1.62,1.62,0,0,0-.35,1.12Z"/><path d="M133.36,9.79V7.15H136V9.79Zm0,15.75V12.45H136V25.54Z"/><path d="M143.15,25.54V24.2h-.05a5.14,5.14,0,0,1-1,1.11,2.47,2.47,0,0,1-1.49.39,3.45,3.45,0,0,1-.94-.14A2.65,2.65,0,0,1,138,24a4.88,4.88,0,0,1-.27-1.77,9.38,9.38,0,0,1,.18-1.95,3.1,3.1,0,0,1,.68-1.41,2.81,2.81,0,0,1,1.26-.81,6.54,6.54,0,0,1,2-.27h.29l.28,0a1.42,1.42,0,0,0,.31,0l.39,0V16.48a2,2,0,0,0-.29-1.11,1.11,1.11,0,0,0-1-.44,1.5,1.5,0,0,0-.94.33,1.6,1.6,0,0,0-.56,1h-2.56A4.25,4.25,0,0,1,139,13.4a3.92,3.92,0,0,1,1.24-.81,4.23,4.23,0,0,1,1.63-.3,4.63,4.63,0,0,1,1.55.26,3.55,3.55,0,0,1,1.27.78,3.66,3.66,0,0,1,.82,1.29,4.75,4.75,0,0,1,.31,1.8v9.12Zm0-5.63a4.71,4.71,0,0,0-.73-.08,2.6,2.6,0,0,0-1.46.41,1.61,1.61,0,0,0-.6,1.45,1.94,1.94,0,0,0,.36,1.22,1.2,1.2,0,0,0,1,.46,1.28,1.28,0,0,0,1-.44,1.84,1.84,0,0,0,.38-1.24Z"/><path d="M147.57,7.15h2.63v14.7a1.45,1.45,0,0,0,.27,1,1.7,1.7,0,0,0,1,.35V25.7a8.81,8.81,0,0,1-1.62-.14,2.86,2.86,0,0,1-1.25-.56,2.39,2.39,0,0,1-.78-1.1,5.33,5.33,0,0,1-.27-1.87Z"/><path d="M157.33,30.84V12.45H160v1.18a7.37,7.37,0,0,1,1-1,2.48,2.48,0,0,1,1.5-.39,2.41,2.41,0,0,1,2.3,1.24,3.68,3.68,0,0,1,.34,1.09,12.77,12.77,0,0,1,.1,1.73v5a20.12,20.12,0,0,1-.08,2.1,2.49,2.49,0,0,1-1.19,1.93,2.67,2.67,0,0,1-1.49.34,2.79,2.79,0,0,1-1.39-.35,3.15,3.15,0,0,1-1-1H160v6.48Zm5.24-14.13a2.37,2.37,0,0,0-.31-1.29,1.06,1.06,0,0,0-1-.49,1.16,1.16,0,0,0-.95.45,1.76,1.76,0,0,0-.37,1.17v5.09a1.41,1.41,0,0,0,.38,1,1.22,1.22,0,0,0,.94.4,1.07,1.07,0,0,0,1-.46,2.12,2.12,0,0,0,.27-1.09Z"/><path d="M172.37,25.54V24.2h-.06a4.89,4.89,0,0,1-1,1.11,2.49,2.49,0,0,1-1.49.39,3.45,3.45,0,0,1-.94-.14,2.47,2.47,0,0,1-.92-.53,2.53,2.53,0,0,1-.71-1.05,4.88,4.88,0,0,1-.27-1.77,9.38,9.38,0,0,1,.18-1.95,3.09,3.09,0,0,1,.67-1.41,2.79,2.79,0,0,1,1.27-.81,6.46,6.46,0,0,1,2-.27h.28l.29,0a1.35,1.35,0,0,0,.31,0l.39,0V16.48a2,2,0,0,0-.29-1.11,1.11,1.11,0,0,0-1-.44,1.52,1.52,0,0,0-1,.33,1.59,1.59,0,0,0-.55,1H167a4.25,4.25,0,0,1,1.19-2.84,3.81,3.81,0,0,1,1.24-.81,4.19,4.19,0,0,1,1.63-.3,4.63,4.63,0,0,1,1.55.26,3.43,3.43,0,0,1,1.26.78,3.68,3.68,0,0,1,.83,1.29,4.75,4.75,0,0,1,.31,1.8v9.12Zm0-5.63a4.71,4.71,0,0,0-.73-.08,2.58,2.58,0,0,0-1.46.41,1.61,1.61,0,0,0-.6,1.45,1.94,1.94,0,0,0,.36,1.22,1.19,1.19,0,0,0,1,.46,1.28,1.28,0,0,0,1.05-.44,1.84,1.84,0,0,0,.38-1.24Z"/><path d="M176.94,25.54V12.45h2.63v1.39a7.91,7.91,0,0,1,1.58-1.13,4,4,0,0,1,1.91-.42v2.79a2.22,2.22,0,0,0-.8-.15,2.93,2.93,0,0,0-.89.14,2.2,2.2,0,0,0-.87.48,2.47,2.47,0,0,0-.67.87,3.19,3.19,0,0,0-.26,1.35v7.77Z"/><path d="M184.12,12.45v-4h2.63v4h1.63v2.06h-1.63v7.26a2.37,2.37,0,0,0,.09.73.68.68,0,0,0,.3.38,1.14,1.14,0,0,0,.51.16c.19,0,.44,0,.73,0v2.48H187.3a3.51,3.51,0,0,1-1.51-.28,2.71,2.71,0,0,1-1-.72,2.92,2.92,0,0,1-.53-1,3.46,3.46,0,0,1-.17-1.07v-8H182.8V12.45Z"/><path d="M189.39,25.54V12.45H192v1.26h.06a3.7,3.7,0,0,1,1-1,2.54,2.54,0,0,1,1.49-.4,3.11,3.11,0,0,1,1,.17,2.41,2.41,0,0,1,.88.55,3,3,0,0,1,.62,1,4.28,4.28,0,0,1,.23,1.49v10h-2.64V16.48a1.78,1.78,0,0,0-.33-1.14,1.17,1.17,0,0,0-1-.41,1.1,1.1,0,0,0-1,.46,2.59,2.59,0,0,0-.29,1.34v8.81Z"/><path d="M207.06,20h-5.22v1.78a1.28,1.28,0,0,0,.35,1,1.31,1.31,0,0,0,.94.33,1,1,0,0,0,1-.44,2.29,2.29,0,0,0,.29-.87h2.64A3.77,3.77,0,0,1,206,24.54a3.86,3.86,0,0,1-1.24.85,4.05,4.05,0,0,1-1.63.31,3.94,3.94,0,0,1-2.1-.52,3.5,3.5,0,0,1-1.33-1.37,3.55,3.55,0,0,1-.39-1.19,9.44,9.44,0,0,1-.1-1.47V16.84a9.44,9.44,0,0,1,.1-1.47,3.55,3.55,0,0,1,.39-1.19A3.5,3.5,0,0,1,201,12.81a3.94,3.94,0,0,1,2.1-.52,4.13,4.13,0,0,1,1.64.31,3.84,3.84,0,0,1,1.26.85,4.28,4.28,0,0,1,1,2.92Zm-5.22-2.07h2.58v-1.5a1.57,1.57,0,0,0-.35-1.12,1.21,1.21,0,0,0-.94-.37,1.22,1.22,0,0,0-.94.37,1.62,1.62,0,0,0-.35,1.12Z"/><path d="M209,25.54V12.45h2.63v1.39a7.91,7.91,0,0,1,1.58-1.13,3.94,3.94,0,0,1,1.91-.42v2.79a2.22,2.22,0,0,0-.8-.15,2.93,2.93,0,0,0-.89.14,2.2,2.2,0,0,0-.87.48,2.47,2.47,0,0,0-.67.87,3.19,3.19,0,0,0-.26,1.35v7.77Z"/><path d="M215.58,28.13a32.12,32.12,0,0,0,1-5.51,57,57,0,0,0,.28-5.7,34.45,34.45,0,0,0-.35-5.08,37.46,37.46,0,0,0-1-4.69h.88a17.65,17.65,0,0,1,1.36,2.44,18.14,18.14,0,0,1,1,2.68,25.41,25.41,0,0,1,.55,2.76,18.5,18.5,0,0,1,.2,2.61,18.17,18.17,0,0,1-.21,2.71,25.21,25.21,0,0,1-.59,2.79,18.84,18.84,0,0,1-2.28,5Z"/></g></g></svg>