<svg viewBox="0 0 108.87 38.15" xmlns="http://www.w3.org/2000/svg"><path d="m0 29.43v-29.43h6.16a8.68 8.68 0 0 1 3.45.62 6.51 6.51 0 0 1 2.39 1.65 6.22 6.22 0 0 1 1.3 2.38 10 10 0 0 1 .39 2.79v1.07a9 9 0 0 1 -.19 2 5.09 5.09 0 0 1 -.6 1.49 5.84 5.84 0 0 1 -2.15 2 4.6 4.6 0 0 1 2.19 2 8.19 8.19 0 0 1 .7 3.72v1.65a8.55 8.55 0 0 1 -1.88 5.95c-1.25 1.38-3.26 2.07-6 2.07zm4.22-25.43v8.1h1.9a3.23 3.23 0 0 0 2.88-1.1 5.48 5.48 0 0 0 .72-3.08 4.69 4.69 0 0 0 -.8-3 3.6 3.6 0 0 0 -2.92-.92zm0 11.82v9.42h1.78a4.42 4.42 0 0 0 2-.37 2.53 2.53 0 0 0 1.09-1 4 4 0 0 0 .46-1.57c.05-.61.08-1.27.08-2a13.7 13.7 0 0 0 -.12-1.94 3.42 3.42 0 0 0 -.5-1.4 2.36 2.36 0 0 0 -1.11-.85 5.3 5.3 0 0 0 -1.86-.27z"/><path d="m17.11 0h4.22v23.52a2.31 2.31 0 0 0 .43 1.63 2.73 2.73 0 0 0 1.63.56v4a13.66 13.66 0 0 1 -2.6-.23 4.49 4.49 0 0 1 -2-.89 3.83 3.83 0 0 1 -1.26-1.76 8.46 8.46 0 0 1 -.44-3z"/><path d="m33 29.43v-2.15h-.08a8 8 0 0 1 -1.67 1.78 4 4 0 0 1 -2.38.62 5.38 5.38 0 0 1 -1.51-.23 3.72 3.72 0 0 1 -1.46-.85 4 4 0 0 1 -1.14-1.67 7.78 7.78 0 0 1 -.44-2.83 15.06 15.06 0 0 1 .31-3.1 5.13 5.13 0 0 1 1.08-2.26 4.6 4.6 0 0 1 2-1.3 10.41 10.41 0 0 1 3.29-.44h.45a2.19 2.19 0 0 1 .46 0 2.37 2.37 0 0 0 .49 0 4.49 4.49 0 0 1 .62 0v-2.08a3.27 3.27 0 0 0 -.45-1.78 1.83 1.83 0 0 0 -1.65-.7 2.37 2.37 0 0 0 -1.51.54 2.54 2.54 0 0 0 -.89 1.57h-4.09a6.75 6.75 0 0 1 1.9-4.55 6 6 0 0 1 2-1.3 6.75 6.75 0 0 1 2.61-.47 7.25 7.25 0 0 1 2.48.41 5.74 5.74 0 0 1 2 1.24 6 6 0 0 1 1.32 2.12 7.54 7.54 0 0 1 .5 2.89v14.54zm0-9a7.18 7.18 0 0 0 -1.15-.13 4.15 4.15 0 0 0 -2.34.65 2.57 2.57 0 0 0 -1 2.33 3 3 0 0 0 .58 1.94 1.91 1.91 0 0 0 1.61.75 2.09 2.09 0 0 0 1.68-.71 3 3 0 0 0 .59-2z"/><path d="m40.34 29.43v-21h4.22v2h.08a5.88 5.88 0 0 1 1.59-1.63 4.08 4.08 0 0 1 2.38-.64 5.11 5.11 0 0 1 1.57.26 3.67 3.67 0 0 1 1.4.89 4.55 4.55 0 0 1 1 1.59 6.92 6.92 0 0 1 .42 2.45v16.08h-4.27v-14.51a2.8 2.8 0 0 0 -.54-1.82 1.84 1.84 0 0 0 -1.53-.66 1.76 1.76 0 0 0 -1.65.75 4.16 4.16 0 0 0 -.45 2.14v14.1z"/><path d="m64.81 29.43v-1.9l-.79.85a3.88 3.88 0 0 1 -1.86 1.13 5 5 0 0 1 -1.36.17 3.78 3.78 0 0 1 -3.68-2 5.42 5.42 0 0 1 -.54-1.68 18.48 18.48 0 0 1 -.16-2.77v-8c0-1.51 0-2.63.12-3.35a4 4 0 0 1 2-3.1 4.23 4.23 0 0 1 2.35-.53 4.37 4.37 0 0 1 2.21.55 5.21 5.21 0 0 1 1.68 1.6h.08v-10.4h4.14v29.43zm-4.18-6.82a3.87 3.87 0 0 0 .5 2.07 1.72 1.72 0 0 0 1.57.78 1.88 1.88 0 0 0 1.53-.72 2.89 2.89 0 0 0 .58-1.88v-8.15a2.29 2.29 0 0 0 -.6-1.63 2 2 0 0 0 -1.51-.64 1.72 1.72 0 0 0 -1.63.75 3.34 3.34 0 0 0 -.44 1.73z"/><path d="m72.5 4.22v-4.22h4.21v4.22zm0 25.21v-21h4.21v21z"/><path d="m80.18 29.43v-21h4.22v2h.08a5.88 5.88 0 0 1 1.59-1.63 4.1 4.1 0 0 1 2.38-.64 5.06 5.06 0 0 1 1.55.33 3.78 3.78 0 0 1 1.41.89 4.68 4.68 0 0 1 1 1.59 6.69 6.69 0 0 1 .37 2.38v16.08h-4.21v-14.51a2.8 2.8 0 0 0 -.57-1.82 1.86 1.86 0 0 0 -1.53-.66 1.79 1.79 0 0 0 -1.66.75 4.16 4.16 0 0 0 -.45 2.14v14.1z"/><path d="m100.48 31.87a2.39 2.39 0 0 0 .6 1.4 2 2 0 0 0 1.63.66 1.69 1.69 0 0 0 1.49-.64 2.75 2.75 0 0 0 .45-1.63v-4.13h-.08a5.14 5.14 0 0 1 -1.67 1.59 4.48 4.48 0 0 1 -2.26.56 3.78 3.78 0 0 1 -3.68-2 5.7 5.7 0 0 1 -.53-1.68 18.26 18.26 0 0 1 -.17-2.77v-8a30.14 30.14 0 0 1 .13-3.35 4 4 0 0 1 1.94-3.1 4.27 4.27 0 0 1 2.36-.53 4.78 4.78 0 0 1 1.34.16 3.72 3.72 0 0 1 1 .46 4.49 4.49 0 0 1 .83.68c.25.26.51.54.78.85v-1.93h4.22v23.53a7.18 7.18 0 0 1 -.35 2.17 5.5 5.5 0 0 1 -1.14 2 5.8 5.8 0 0 1 -2 1.46 7.09 7.09 0 0 1 -4.84.25 5.32 5.32 0 0 1 -1.9-1.05 5.94 5.94 0 0 1 -1.55-1.88 8.31 8.31 0 0 1 -.85-3zm0-8.89a3.4 3.4 0 0 0 .43 1.74 1.74 1.74 0 0 0 1.63.74 2 2 0 0 0 1.51-.64 2.29 2.29 0 0 0 .6-1.63v-8.14a2.87 2.87 0 0 0 -.58-1.88 1.83 1.83 0 0 0 -1.53-.73 1.73 1.73 0 0 0 -1.57.79 3.81 3.81 0 0 0 -.49 2.06z"/></svg>