<svg viewBox="0 0 148.47 38.15" xmlns="http://www.w3.org/2000/svg"><path d="m23.19 0-4.38 29.43h-4l-3.23-19.1h-.08l-3.15 19.1h-4l-4.35-29.43h4.46l2.11 18.68h.08l3.35-18.68h3.23l3.43 19.14h.08l1.98-19.14z"/><path d="m37.78 20.54h-8.35v2.86a2 2 0 0 0 .57 1.52 2.07 2.07 0 0 0 1.51.54 1.67 1.67 0 0 0 1.59-.7 3.73 3.73 0 0 0 .47-1.41h4.22a6 6 0 0 1 -1.7 4.47 5.88 5.88 0 0 1 -2 1.36 6.55 6.55 0 0 1 -2.6.5 6.45 6.45 0 0 1 -3.37-.83 5.6 5.6 0 0 1 -2.12-2.19 5.52 5.52 0 0 1 -.62-1.9 15.58 15.58 0 0 1 -.17-2.36v-6.9a15.67 15.67 0 0 1 .17-2.36 5.6 5.6 0 0 1 2.75-4.09 6.45 6.45 0 0 1 3.37-.82 6.72 6.72 0 0 1 2.62.49 5.79 5.79 0 0 1 2 1.37 6.73 6.73 0 0 1 1.66 4.67zm-8.35-3.3h4.13v-2.4a2.52 2.52 0 0 0 -.56-1.84 2.19 2.19 0 0 0 -3 0 2.57 2.57 0 0 0 -.56 1.8z"/><path d="m40.88 29.43v-29.43h4.21v10.38h.09a5.18 5.18 0 0 1 1.67-1.6 4.39 4.39 0 0 1 2.21-.55 4.54 4.54 0 0 1 2.38.53 4.62 4.62 0 0 1 1.38 1.37 4.06 4.06 0 0 1 .54 1.73c.08.72.12 1.84.12 3.35v8a18.48 18.48 0 0 1 -.16 2.79 5.42 5.42 0 0 1 -.54 1.73 3.82 3.82 0 0 1 -3.68 2 4 4 0 0 1 -2.39-.62 10.94 10.94 0 0 1 -1.62-1.53v1.9zm8.39-14.51a3.34 3.34 0 0 0 -.44-1.73 1.71 1.71 0 0 0 -1.63-.75 2 2 0 0 0 -1.51.64 2.29 2.29 0 0 0 -.6 1.63v8.15a3 3 0 0 0 .58 1.88 1.88 1.88 0 0 0 1.53.72 1.72 1.72 0 0 0 1.57-.78 3.87 3.87 0 0 0 .5-2.07z"/><path d="m64.89 29.43v-29.43h6.24a7.25 7.25 0 0 1 5.52 2 7.9 7.9 0 0 1 1.88 5.63v13.74c0 2.75-.67 4.79-2 6.1a7.91 7.91 0 0 1 -5.77 2zm4.22-25.43v21.46h1.94a3.1 3.1 0 0 0 2.52-.89 4.27 4.27 0 0 0 .75-2.79v-14.17a4.44 4.44 0 0 0 -.71-2.69 3 3 0 0 0 -2.56-.92z"/><path d="m94.44 20.54h-8.34v2.86a2 2 0 0 0 .55 1.52 2.1 2.1 0 0 0 1.51.54 1.65 1.65 0 0 0 1.59-.7 3.75 3.75 0 0 0 .48-1.41h4.21a6 6 0 0 1 -1.69 4.47 5.88 5.88 0 0 1 -2 1.36 6.6 6.6 0 0 1 -2.61.5 6.5 6.5 0 0 1 -3.37-.83 5.64 5.64 0 0 1 -2.12-2.19 5.53 5.53 0 0 1 -.63-1.9 15.64 15.64 0 0 1 -.16-2.36v-6.9a15.73 15.73 0 0 1 .14-2.36 5.68 5.68 0 0 1 2.75-4.09 6.5 6.5 0 0 1 3.37-.82 6.74 6.74 0 0 1 2.63.49 5.89 5.89 0 0 1 2 1.37 6.77 6.77 0 0 1 1.65 4.67zm-8.34-3.3h4.13v-2.4a2.57 2.57 0 0 0 -.56-1.8 2 2 0 0 0 -1.51-.6 2 2 0 0 0 -1.51.6 2.57 2.57 0 0 0 -.55 1.8z"/><path d="m105.19 14.34a2.1 2.1 0 0 0 -.68-1.61 2.23 2.23 0 0 0 -1.47-.54 1.91 1.91 0 0 0 -1.53.64 2.22 2.22 0 0 0 -.51 1.47 2.46 2.46 0 0 0 .28 1.14 2.72 2.72 0 0 0 1.49 1l2.48 1a6.11 6.11 0 0 1 3.25 2.48 6.88 6.88 0 0 1 .89 3.43 6.2 6.2 0 0 1 -.48 2.46 6.62 6.62 0 0 1 -1.3 2 5.82 5.82 0 0 1 -2 1.36 6.33 6.33 0 0 1 -2.52.5 6 6 0 0 1 -5.7-3.58 7 7 0 0 1 -.58-2.75h4a4 4 0 0 0 .6 1.62 1.83 1.83 0 0 0 1.67.74 2.47 2.47 0 0 0 1.63-.6 2 2 0 0 0 .73-1.67 2.4 2.4 0 0 0 -.46-1.49 3.63 3.63 0 0 0 -1.65-1.08l-2-.74a6.94 6.94 0 0 1 -3.12-2.21 5.71 5.71 0 0 1 -1.21-3.57 6.11 6.11 0 0 1 .49-2.46 6 6 0 0 1 1.37-2 5.61 5.61 0 0 1 1.94-1.26 6.52 6.52 0 0 1 2.4-.43 6.17 6.17 0 0 1 2.37.45 5.37 5.37 0 0 1 1.89 1.36 6 6 0 0 1 1.24 2 6.35 6.35 0 0 1 .46 2.42z"/><path d="m112.09 4.22v-4.22h4.22v4.22zm0 25.21v-21h4.22v21z"/><path d="m124 31.87a2.27 2.27 0 0 0 .6 1.4 2 2 0 0 0 1.63.66 1.7 1.7 0 0 0 1.49-.64 2.75 2.75 0 0 0 .45-1.63v-4.13h-.08a5.14 5.14 0 0 1 -1.67 1.59 4.48 4.48 0 0 1 -2.26.56 3.78 3.78 0 0 1 -3.68-2 5.7 5.7 0 0 1 -.48-1.68 18.26 18.26 0 0 1 -.17-2.77v-8c0-1.51 0-2.63.12-3.35a4 4 0 0 1 1.95-3.1 4.26 4.26 0 0 1 2.35-.53 4.85 4.85 0 0 1 1.35.16 3.72 3.72 0 0 1 1 .46 4.49 4.49 0 0 1 .83.68c.24.26.51.54.78.85v-1.93h4.22v23.53a7.18 7.18 0 0 1 -.35 2.17 5.5 5.5 0 0 1 -1.14 2 5.9 5.9 0 0 1 -2 1.46 7.09 7.09 0 0 1 -4.84.25 5.32 5.32 0 0 1 -1.9-1.05 5.94 5.94 0 0 1 -1.55-1.88 8.31 8.31 0 0 1 -.85-3zm0-8.87a3.4 3.4 0 0 0 .43 1.74 1.73 1.73 0 0 0 1.63.74 2 2 0 0 0 1.51-.64 2.29 2.29 0 0 0 .6-1.63v-8.16a2.87 2.87 0 0 0 -.58-1.88 1.83 1.83 0 0 0 -1.53-.73 1.72 1.72 0 0 0 -1.57.79 3.81 3.81 0 0 0 -.49 2.06z"/><path d="m135.86 29.43v-21h4.22v2h.08a5.88 5.88 0 0 1 1.59-1.63 4.08 4.08 0 0 1 2.38-.64 5.11 5.11 0 0 1 1.57.26 3.67 3.67 0 0 1 1.4.89 4.39 4.39 0 0 1 1 1.59 6.67 6.67 0 0 1 .38 2.38v16.15h-4.22v-14.51a2.8 2.8 0 0 0 -.54-1.82 1.86 1.86 0 0 0 -1.53-.66 1.76 1.76 0 0 0 -1.65.75 4.16 4.16 0 0 0 -.45 2.14v14.1z"/></svg>