<svg viewBox="0 0 161.81 38.4" xmlns="http://www.w3.org/2000/svg"><path d="m13.64.25v22.81a6.66 6.66 0 0 1 -.52 2.67 6.75 6.75 0 0 1 -1.46 2.17 7.19 7.19 0 0 1 -2.2 1.49 6.49 6.49 0 0 1 -2.64.54 6.37 6.37 0 0 1 -2.62-.54 7.06 7.06 0 0 1 -2.2-1.49 6.84 6.84 0 0 1 -1.46-2.17 6.5 6.5 0 0 1 -.54-2.67v-22.81h4.22v22.4a3.16 3.16 0 0 0 .78 2.35 2.56 2.56 0 0 0 1.86.74 2.56 2.56 0 0 0 1.82-.74 3.16 3.16 0 0 0 .74-2.32v-22.43z"/><path d="m19.38 29.68v-29.43h4.22v29.43z"/><path d="m25.92 29.93 5.45-29.93h3.31l-5.46 29.93z"/><path d="m50.51.25v22.81a6.83 6.83 0 0 1 -.51 2.67 6.62 6.62 0 0 1 -1.47 2.17 7 7 0 0 1 -2.19 1.49 6.53 6.53 0 0 1 -2.64.54 6.45 6.45 0 0 1 -2.63-.54 7.3 7.3 0 0 1 -2.17-1.49 7 7 0 0 1 -1.48-2.17 6.5 6.5 0 0 1 -.54-2.67v-22.81h4.21v22.4a3.16 3.16 0 0 0 .74 2.35 2.52 2.52 0 0 0 1.86.74 2.56 2.56 0 0 0 1.86-.74 3.2 3.2 0 0 0 .74-2.32v-22.43z"/><path d="m52.41 29.68 6-15.42-5.5-14h4.47l3.13 8.74 3.22-8.75h4.47l-5.62 14 6.07 15.42h-4.46l-3.68-9.92-3.64 9.92z"/><path d="m78.24 29.68v-29.43h6.24a7.25 7.25 0 0 1 5.52 2 7.87 7.87 0 0 1 1.88 5.62v13.75c0 2.75-.67 4.79-2 6.09a7.91 7.91 0 0 1 -5.77 2zm4.22-25.46v21.49h1.94a3.15 3.15 0 0 0 2.52-.89 4.27 4.27 0 0 0 .75-2.82v-14.15a4.43 4.43 0 0 0 -.67-2.68 3 3 0 0 0 -2.56-1z"/><path d="m107.79 20.79h-8.35v2.85a2 2 0 0 0 .56 1.53 2.08 2.08 0 0 0 1.51.54 1.65 1.65 0 0 0 1.59-.7 3.94 3.94 0 0 0 .48-1.41h4.21a6 6 0 0 1 -3.67 5.83 6.6 6.6 0 0 1 -2.61.5 6.5 6.5 0 0 1 -3.37-.83 5.74 5.74 0 0 1 -2.14-2.19 5.82 5.82 0 0 1 -.62-1.9 15.64 15.64 0 0 1 -.16-2.36v-6.9a15.64 15.64 0 0 1 .16-2.36 5.82 5.82 0 0 1 .62-1.9 5.74 5.74 0 0 1 2.14-2.19 6.5 6.5 0 0 1 3.37-.83 6.74 6.74 0 0 1 2.63.5 5.86 5.86 0 0 1 2 1.36 6.78 6.78 0 0 1 1.65 4.67zm-8.35-3.31h4.14v-2.39a2.57 2.57 0 0 0 -.56-1.8 2.2 2.2 0 0 0 -3 0 2.57 2.57 0 0 0 -.56 1.8z"/><path d="m118.54 14.59a2.1 2.1 0 0 0 -.68-1.61 2.23 2.23 0 0 0 -1.47-.54 1.91 1.91 0 0 0 -1.53.64 2.23 2.23 0 0 0 -.54 1.47 2.51 2.51 0 0 0 .29 1.14 2.72 2.72 0 0 0 1.49 1l2.48 1a6.07 6.07 0 0 1 3.25 2.48 6.87 6.87 0 0 1 .88 3.43 6.27 6.27 0 0 1 -.47 2.46 6.62 6.62 0 0 1 -1.3 2 6.07 6.07 0 0 1 -2 1.36 6.33 6.33 0 0 1 -2.52.5 6.07 6.07 0 0 1 -4.3-1.62 5.81 5.81 0 0 1 -1.4-2 7 7 0 0 1 -.58-2.75h4a3.89 3.89 0 0 0 .6 1.61 1.81 1.81 0 0 0 1.67.75 2.47 2.47 0 0 0 1.63-.6 2.07 2.07 0 0 0 .73-1.68 2.46 2.46 0 0 0 -.46-1.48 3.47 3.47 0 0 0 -1.65-1.08l-2-.74a7 7 0 0 1 -3.12-2.21 5.65 5.65 0 0 1 -1.13-3.58 6.11 6.11 0 0 1 .49-2.46 5.92 5.92 0 0 1 1.37-2 5.61 5.61 0 0 1 1.94-1.26 6.52 6.52 0 0 1 2.4-.44 6.18 6.18 0 0 1 2.37.46 5.37 5.37 0 0 1 1.88 1.28 6 6 0 0 1 1.24 2 6.35 6.35 0 0 1 .46 2.42z"/><path d="m125.44 4.46v-4.21h4.22v4.21zm0 25.22v-21h4.22v21z"/><path d="m137.35 32.12a2.27 2.27 0 0 0 .6 1.4 2 2 0 0 0 1.63.66 1.7 1.7 0 0 0 1.49-.64 2.75 2.75 0 0 0 .45-1.63v-4.13h-.08a5.07 5.07 0 0 1 -1.68 1.59 4.44 4.44 0 0 1 -2.25.56 3.8 3.8 0 0 1 -3.68-2 5.59 5.59 0 0 1 -.54-1.73 18.57 18.57 0 0 1 -.16-2.77v-8a33.42 33.42 0 0 1 .12-3.35 4 4 0 0 1 1.95-3.08 4.14 4.14 0 0 1 2.35-.54 4.82 4.82 0 0 1 1.35.17 4.2 4.2 0 0 1 1 .45 4.54 4.54 0 0 1 .83.69l.78.84v-1.89h4.22v23.52a6.9 6.9 0 0 1 -.36 2.17 5.29 5.29 0 0 1 -1.13 2 5.84 5.84 0 0 1 -2 1.47 7.07 7.07 0 0 1 -4.83.25 5.32 5.32 0 0 1 -1.9-1.05 5.75 5.75 0 0 1 -1.51-1.93 8.2 8.2 0 0 1 -.85-3zm0-8.89a3.4 3.4 0 0 0 .43 1.74 1.73 1.73 0 0 0 1.63.74 2 2 0 0 0 1.51-.64 2.29 2.29 0 0 0 .6-1.63v-8.15a2.91 2.91 0 0 0 -.58-1.88 1.85 1.85 0 0 0 -1.53-.72 1.73 1.73 0 0 0 -1.57.78 3.87 3.87 0 0 0 -.49 2.07z"/><path d="m149.21 29.68v-21h4.21v2h.09a6.06 6.06 0 0 1 1.59-1.64 4.14 4.14 0 0 1 2.37-.64 4.76 4.76 0 0 1 1.57.27 3.63 3.63 0 0 1 1.41.89 4.58 4.58 0 0 1 1 1.59 6.65 6.65 0 0 1 .37 2.38v16.15h-4.22v-14.51a2.8 2.8 0 0 0 -.54-1.82 1.86 1.86 0 0 0 -1.53-.66 1.78 1.78 0 0 0 -1.65.74 4.22 4.22 0 0 0 -.46 2.15v14.1z"/></svg>