<svg viewBox="0 0 128.83 29.68" xmlns="http://www.w3.org/2000/svg"><path d="m0 29.43v-29.43h4.22v29.43z"/><path d="m8.06 29.43v-21h4.22v2h.08a5.88 5.88 0 0 1 1.64-1.56 4.08 4.08 0 0 1 2.38-.64 5.11 5.11 0 0 1 1.57.26 3.67 3.67 0 0 1 1.4.89 4.39 4.39 0 0 1 1 1.59 6.67 6.67 0 0 1 .38 2.38v16.08h-4.28v-14.51a2.8 2.8 0 0 0 -.54-1.82 1.86 1.86 0 0 0 -1.53-.66 1.76 1.76 0 0 0 -1.65.75 4.16 4.16 0 0 0 -.45 2.14v14.1z"/><path d="m24.68 29.43v-17.65h-2.07v-3.31h2.07v-2.85a6.55 6.55 0 0 1 .45-2.62 5 5 0 0 1 1.24-1.76 4.22 4.22 0 0 1 1.71-1 7.13 7.13 0 0 1 2-.29h1.92v4.05h-1.9c-.83 0-1.24.48-1.24 1.45v3.02h3.14v3.31h-3.11v17.65z"/><path d="m33.06 0h4.22v23.52a2.31 2.31 0 0 0 .44 1.63 2.68 2.68 0 0 0 1.63.56v4a13.77 13.77 0 0 1 -2.61-.23 4.49 4.49 0 0 1 -2-.89 3.83 3.83 0 0 1 -1.24-1.79 8.46 8.46 0 0 1 -.44-3z"/><path d="m53.61 8.47v21h-4.22v-2h-.08a5.92 5.92 0 0 1 -1.59 1.53 4.17 4.17 0 0 1 -2.38.64 4.8 4.8 0 0 1 -1.57-.27 3.78 3.78 0 0 1 -1.41-.89 4.49 4.49 0 0 1 -1-1.59 6.65 6.65 0 0 1 -.36-2.34v-16.08h4.22v14.53a2.86 2.86 0 0 0 .53 1.82 1.86 1.86 0 0 0 1.53.66 1.81 1.81 0 0 0 1.66-.74 4.2 4.2 0 0 0 .45-2.15v-14.12z"/><path d="m69.27 20.54h-8.35v2.86a2 2 0 0 0 .56 1.52 2.08 2.08 0 0 0 1.51.54 1.65 1.65 0 0 0 1.59-.7 3.94 3.94 0 0 0 .48-1.41h4.21a6 6 0 0 1 -1.69 4.47 5.92 5.92 0 0 1 -2 1.36 6.55 6.55 0 0 1 -2.6.5 6.48 6.48 0 0 1 -3.37-.83 5.6 5.6 0 0 1 -2.75-4.09 15.64 15.64 0 0 1 -.16-2.36v-6.9a15.73 15.73 0 0 1 .16-2.36 5.82 5.82 0 0 1 .62-1.9 5.74 5.74 0 0 1 2.13-2.19 6.47 6.47 0 0 1 3.39-.82 6.68 6.68 0 0 1 2.62.49 5.83 5.83 0 0 1 2 1.37 6.77 6.77 0 0 1 1.65 4.67zm-8.35-3.3h4.14v-2.4a2.57 2.57 0 0 0 -.56-1.84 2.2 2.2 0 0 0 -3 0 2.57 2.57 0 0 0 -.56 1.8z"/><path d="m72.37 29.43v-21h4.22v2h.08a5.88 5.88 0 0 1 1.59-1.63 4.08 4.08 0 0 1 2.38-.64 5.06 5.06 0 0 1 1.57.26 3.67 3.67 0 0 1 1.4.89 4.55 4.55 0 0 1 1 1.59 6.92 6.92 0 0 1 .39 2.45v16.08h-4.24v-14.51a2.86 2.86 0 0 0 -.53-1.82 1.86 1.86 0 0 0 -1.53-.66 1.79 1.79 0 0 0 -1.66.75 4.16 4.16 0 0 0 -.45 2.14v14.1z"/><path d="m92.91 23.4a2 2 0 0 0 .56 1.52 2.08 2.08 0 0 0 1.51.54 1.65 1.65 0 0 0 1.59-.7 3.94 3.94 0 0 0 .48-1.41h4.21a6 6 0 0 1 -1.69 4.47 5.82 5.82 0 0 1 -2 1.36 6.55 6.55 0 0 1 -2.6.5 6.48 6.48 0 0 1 -3.37-.83 5.6 5.6 0 0 1 -2.75-4.09 15.64 15.64 0 0 1 -.16-2.36v-6.9a15.73 15.73 0 0 1 .16-2.36 5.82 5.82 0 0 1 .62-1.9 5.74 5.74 0 0 1 2.13-2.19 6.47 6.47 0 0 1 3.4-.82 6.68 6.68 0 0 1 2.62.49 5.83 5.83 0 0 1 2 1.37 7 7 0 0 1 1.65 4.83h-4.22a2.71 2.71 0 0 0 -.56-1.92 2.2 2.2 0 0 0 -3 0 2.57 2.57 0 0 0 -.56 1.8z"/><path d="m115.94 20.54h-8.35v2.86a2 2 0 0 0 .56 1.52 2.06 2.06 0 0 0 1.5.54 1.65 1.65 0 0 0 1.59-.7 3.75 3.75 0 0 0 .48-1.41h4.22a6 6 0 0 1 -1.7 4.47 5.88 5.88 0 0 1 -2 1.36 6.57 6.57 0 0 1 -2.61.5 6.5 6.5 0 0 1 -3.37-.83 5.64 5.64 0 0 1 -2.12-2.19 5.52 5.52 0 0 1 -.62-1.9 15.58 15.58 0 0 1 -.17-2.36v-6.9a15.67 15.67 0 0 1 .17-2.36 5.62 5.62 0 0 1 2.74-4.09 6.5 6.5 0 0 1 3.37-.82 6.74 6.74 0 0 1 2.63.49 5.89 5.89 0 0 1 2 1.37 6.77 6.77 0 0 1 1.66 4.67zm-8.35-3.3h4.13v-2.4a2.57 2.57 0 0 0 -.56-1.8 2.19 2.19 0 0 0 -3 0 2.52 2.52 0 0 0 -.56 1.8z"/><path d="m119 29.43v-21h4.21v2.24a12.78 12.78 0 0 1 2.52-1.82 6.47 6.47 0 0 1 3.06-.66v4.46a3.32 3.32 0 0 0 -1.28-.25 5.12 5.12 0 0 0 -1.43.23 3.74 3.74 0 0 0 -1.38.76 3.94 3.94 0 0 0 -1.07 1.41 4.9 4.9 0 0 0 -.42 2.15v12.48z"/></svg>