<svg viewBox="0 0 185.42 38.15" xmlns="http://www.w3.org/2000/svg"><path d="m0 29.43v-29.43h12.57v4h-8.35v8.64h7.27v4h-7.27v8.63h8.35v4.22z"/><path d="m27.9 8.47-5.46 21h-3.72l-5.45-21h4.46l2.81 13.4h.08l2.82-13.4z"/><path d="m41.79 20.54h-8.35v2.86a2 2 0 0 0 .56 1.52 2.06 2.06 0 0 0 1.5.54 1.68 1.68 0 0 0 1.6-.7 3.73 3.73 0 0 0 .47-1.41h4.22a6 6 0 0 1 -1.7 4.47 5.88 5.88 0 0 1 -2 1.36 6.57 6.57 0 0 1 -2.61.5 6.44 6.44 0 0 1 -3.36-.83 5.6 5.6 0 0 1 -2.12-2.19 5.52 5.52 0 0 1 -.62-1.9 15.58 15.58 0 0 1 -.17-2.36v-6.9a15.67 15.67 0 0 1 .17-2.36 5.6 5.6 0 0 1 2.75-4.09 6.44 6.44 0 0 1 3.36-.82 6.74 6.74 0 0 1 2.63.49 5.89 5.89 0 0 1 2 1.37 6.73 6.73 0 0 1 1.66 4.67zm-8.35-3.3h4.13v-2.4a2.57 2.57 0 0 0 -.57-1.84 2.19 2.19 0 0 0 -3 0 2.52 2.52 0 0 0 -.56 1.8z"/><path d="m44.89 29.43v-21h4.21v2h.08a6.06 6.06 0 0 1 1.6-1.63 4.07 4.07 0 0 1 2.37-.64 5 5 0 0 1 1.57.26 3.63 3.63 0 0 1 1.41.89 4.68 4.68 0 0 1 1 1.59 6.69 6.69 0 0 1 .37 2.38v16.15h-4.22v-14.51a2.8 2.8 0 0 0 -.54-1.82 1.86 1.86 0 0 0 -1.53-.66 1.76 1.76 0 0 0 -1.65.75 4.05 4.05 0 0 0 -.46 2.14v14.1z"/><path d="m61 8.47v-6.36h4.22v6.36h2.6v3.31h-2.6v11.62a3.48 3.48 0 0 0 .15 1.15 1.07 1.07 0 0 0 .47.62 1.8 1.8 0 0 0 .81.25h1.17v4h-1.77a5.59 5.59 0 0 1 -2.42-.42 4.31 4.31 0 0 1 -1.55-1.15 4.53 4.53 0 0 1 -.85-1.59 6 6 0 0 1 -.23-1.75v-12.73h-2.1v-3.31z"/><path d="m77.33 29.43v-29.43h6.33a9.18 9.18 0 0 1 3 .46 5.83 5.83 0 0 1 2.4 1.61 6.3 6.3 0 0 1 1.49 2.7 16.84 16.84 0 0 1 .45 4.23 21.14 21.14 0 0 1 -.22 3.35 7.09 7.09 0 0 1 -1 2.56 6 6 0 0 1 -2.31 2.25 7.74 7.74 0 0 1 -3.8.81h-2.12v11.46zm4.22-25.43v10h2a4.3 4.3 0 0 0 2-.37 2.33 2.33 0 0 0 1-1 3.82 3.82 0 0 0 .45-1.63c0-.61.06-1.29.06-2s0-1.34 0-2a4.07 4.07 0 0 0 -.37-1.63 2.36 2.36 0 0 0 -1-1.08 3.9 3.9 0 0 0 -1.95-.29z"/><path d="m93.66 0h4.21v23.52a2.31 2.31 0 0 0 .44 1.63 2.7 2.7 0 0 0 1.63.56v4a13.66 13.66 0 0 1 -2.6-.23 4.48 4.48 0 0 1 -2-.89 3.83 3.83 0 0 1 -1.26-1.76 8.49 8.49 0 0 1 -.43-3z"/><path d="m109.57 29.43v-2.15h-.08a7.84 7.84 0 0 1 -1.68 1.78 4 4 0 0 1 -2.37.62 5.32 5.32 0 0 1 -1.51-.23 3.83 3.83 0 0 1 -1.47-.85 3.88 3.88 0 0 1 -1.13-1.67 7.78 7.78 0 0 1 -.44-2.83 15.06 15.06 0 0 1 .29-3.12 5 5 0 0 1 1.07-2.26 4.63 4.63 0 0 1 2-1.3 10.32 10.32 0 0 1 3.27-.43h.48a2.19 2.19 0 0 1 .46 0 2.31 2.31 0 0 0 .49 0 4.59 4.59 0 0 1 .62 0v-2.07a3.27 3.27 0 0 0 -.45-1.78 1.86 1.86 0 0 0 -1.66-.7 2.39 2.39 0 0 0 -1.46.56 2.53 2.53 0 0 0 -.88 1.57h-4.12a6.75 6.75 0 0 1 1.88-4.57 6 6 0 0 1 2-1.3 6.73 6.73 0 0 1 2.6-.47 7.21 7.21 0 0 1 2.48.41 5.79 5.79 0 0 1 2 1.24 6 6 0 0 1 1.33 2.12 7.74 7.74 0 0 1 .5 2.89v14.54zm0-9a7.29 7.29 0 0 0 -1.16-.13 4.11 4.11 0 0 0 -2.33.65 2.57 2.57 0 0 0 -1 2.33 3 3 0 0 0 .58 1.94 1.91 1.91 0 0 0 1.61.75 2.08 2.08 0 0 0 1.67-.71 3 3 0 0 0 .6-2z"/><path d="m116.89 29.43v-21h4.21v2h.08a6.06 6.06 0 0 1 1.6-1.63 4.07 4.07 0 0 1 2.37-.64 5 5 0 0 1 1.57.26 3.63 3.63 0 0 1 1.41.89 4.68 4.68 0 0 1 1 1.59 6.69 6.69 0 0 1 .37 2.38v16.15h-4.21v-14.51a2.8 2.8 0 0 0 -.54-1.82 1.86 1.86 0 0 0 -1.53-.66 1.76 1.76 0 0 0 -1.65.75 4.05 4.05 0 0 0 -.46 2.14v14.1z"/><path d="m133 29.43v-21h4.22v2h.08a5.88 5.88 0 0 1 1.59-1.63 4.1 4.1 0 0 1 2.38-.64 5.06 5.06 0 0 1 1.57.26 3.71 3.71 0 0 1 1.41.89 4.68 4.68 0 0 1 1 1.59 6.69 6.69 0 0 1 .37 2.38v16.15h-4.21v-14.51a2.8 2.8 0 0 0 -.54-1.82 1.86 1.86 0 0 0 -1.53-.66 1.79 1.79 0 0 0 -1.66.75 4.16 4.16 0 0 0 -.45 2.14v14.1z"/><path d="m149 4.22v-4.22h4.22v4.22zm0 25.21v-21h4.22v21z"/><path d="m156.73 29.43v-21h4.27v2a5.88 5.88 0 0 1 1.59-1.63 4.08 4.08 0 0 1 2.41-.57 5.11 5.11 0 0 1 1.57.26 3.67 3.67 0 0 1 1.4.89 4.39 4.39 0 0 1 1.03 1.62 6.67 6.67 0 0 1 .38 2.38v16.05h-4.22v-14.51a2.8 2.8 0 0 0 -.54-1.82 1.85 1.85 0 0 0 -1.53-.66 1.76 1.76 0 0 0 -1.65.75 4.16 4.16 0 0 0 -.45 2.14v14.1z"/><path d="m177 31.87a2.39 2.39 0 0 0 .6 1.4 2 2 0 0 0 1.64.66 1.68 1.68 0 0 0 1.48-.64 2.69 2.69 0 0 0 .46-1.63v-4.13h-.08a5.07 5.07 0 0 1 -1.68 1.59 4.47 4.47 0 0 1 -2.25.56 3.78 3.78 0 0 1 -3.68-2 5.42 5.42 0 0 1 -.49-1.68 18.48 18.48 0 0 1 -.16-2.77v-8c0-1.51 0-2.63.12-3.35a4 4 0 0 1 1.95-3.1 4.23 4.23 0 0 1 2.35-.53 4.78 4.78 0 0 1 1.34.16 3.79 3.79 0 0 1 1 .46 4.12 4.12 0 0 1 .82.68l.79.85v-1.93h4.22v23.53a6.9 6.9 0 0 1 -.36 2.17 5.33 5.33 0 0 1 -1.13 2 5.94 5.94 0 0 1 -2 1.46 7.07 7.07 0 0 1 -4.83.25 5.24 5.24 0 0 1 -1.9-1.05 5.81 5.81 0 0 1 -1.55-1.88 8.31 8.31 0 0 1 -.85-3zm0-8.87a3.41 3.41 0 0 0 .44 1.74 1.73 1.73 0 0 0 1.63.74 2 2 0 0 0 1.51-.64 2.29 2.29 0 0 0 .6-1.63v-8.16a2.87 2.87 0 0 0 -.58-1.88 1.86 1.86 0 0 0 -1.53-.73 1.71 1.71 0 0 0 -1.57.79 3.81 3.81 0 0 0 -.5 2.06z"/></svg>