<svg viewBox="0 0 179.63 29.68" xmlns="http://www.w3.org/2000/svg"><path d="m0 29.43v-29.43h6.32a9.2 9.2 0 0 1 3.06.46 5.89 5.89 0 0 1 2.4 1.61 6.3 6.3 0 0 1 1.49 2.7 17.33 17.33 0 0 1 .41 4.23 19.9 19.9 0 0 1 -.23 3.35 6.89 6.89 0 0 1 -1 2.56 6.08 6.08 0 0 1 -2.31 2.25 7.76 7.76 0 0 1 -3.8.81h-2.12v11.46zm4.22-25.43v10h2a4.3 4.3 0 0 0 2-.37 2.38 2.38 0 0 0 1-1 3.82 3.82 0 0 0 .43-1.63c0-.61.06-1.29.06-2s0-1.34 0-2a4.25 4.25 0 0 0 -.41-1.58 2.36 2.36 0 0 0 -1-1.08 3.93 3.93 0 0 0 -1.89-.34z"/><path d="m16.57 29.43v-29.43h4.22v10.5h.08a5.88 5.88 0 0 1 1.59-1.63 4.1 4.1 0 0 1 2.38-.64 5.06 5.06 0 0 1 1.57.26 3.71 3.71 0 0 1 1.41.89 4.68 4.68 0 0 1 1 1.59 6.69 6.69 0 0 1 .37 2.38v16.08h-4.19v-14.51a2.8 2.8 0 0 0 -.54-1.82 1.86 1.86 0 0 0 -1.53-.66 1.76 1.76 0 0 0 -1.65.75 4.05 4.05 0 0 0 -.46 2.14v14.1z"/><path d="m32.28 15.5a15.67 15.67 0 0 1 .17-2.36 5.62 5.62 0 0 1 2.74-4.09 6.5 6.5 0 0 1 3.37-.82 6.45 6.45 0 0 1 3.37.82 5.74 5.74 0 0 1 2.13 2.19 5.82 5.82 0 0 1 .62 1.9 15.67 15.67 0 0 1 .17 2.36v6.9a15.58 15.58 0 0 1 -.17 2.36 5.6 5.6 0 0 1 -2.75 4.09 6.45 6.45 0 0 1 -3.37.83 6.5 6.5 0 0 1 -3.37-.83 5.64 5.64 0 0 1 -2.12-2.19 5.52 5.52 0 0 1 -.62-1.9 15.58 15.58 0 0 1 -.17-2.36zm4.22 7.56a2.52 2.52 0 0 0 .56 1.8 2.19 2.19 0 0 0 3 0 2.57 2.57 0 0 0 .56-1.8v-8.22a2.57 2.57 0 0 0 -.56-1.8 2.19 2.19 0 0 0 -3 0 2.52 2.52 0 0 0 -.56 1.8z"/><path d="m48 8.47v-6.36h4.21v6.36h2.61v3.31h-2.66v11.62a3.48 3.48 0 0 0 .15 1.15 1.07 1.07 0 0 0 .47.62 1.8 1.8 0 0 0 .81.25h1.18v4h-1.77a5.59 5.59 0 0 1 -2.39-.42 4.31 4.31 0 0 1 -1.55-1.15 4.69 4.69 0 0 1 -.85-1.59 6.3 6.3 0 0 1 -.21-1.75v-12.73h-2.16v-3.31z"/><path d="m56 15.5a15.73 15.73 0 0 1 .16-2.36 5.82 5.82 0 0 1 .62-1.9 5.74 5.74 0 0 1 2.13-2.19 7.33 7.33 0 0 1 6.74 0 5.74 5.74 0 0 1 2.13 2.19 6.07 6.07 0 0 1 .62 1.9 15.73 15.73 0 0 1 .16 2.36v6.9a15.64 15.64 0 0 1 -.16 2.36 6 6 0 0 1 -.62 1.9 5.74 5.74 0 0 1 -2.13 2.19 7.26 7.26 0 0 1 -6.74 0 5.6 5.6 0 0 1 -2.75-4.09 15.64 15.64 0 0 1 -.16-2.36zm4.21 7.56a2.57 2.57 0 0 0 .56 1.8 2 2 0 0 0 1.51.6 2 2 0 0 0 1.51-.6 2.57 2.57 0 0 0 .55-1.8v-8.22a2.57 2.57 0 0 0 -.54-1.84 2 2 0 0 0 -1.51-.6 2 2 0 0 0 -1.51.6 2.57 2.57 0 0 0 -.56 1.8z"/><path d="m92.21 29.43-1.4-2.23a9.39 9.39 0 0 1 -2.57 1.86 7.16 7.16 0 0 1 -3 .62 5.74 5.74 0 0 1 -2.36-.5 5.84 5.84 0 0 1 -1.94-1.4 6.16 6.16 0 0 1 -1.3-2.13 7.78 7.78 0 0 1 -.48-2.79 7.77 7.77 0 0 1 1.16-4.26 16.58 16.58 0 0 1 2.89-3.39 18.14 18.14 0 0 1 -1.89-3.21 8.89 8.89 0 0 1 -.72-3.54 6.53 6.53 0 0 1 .4-2.24 5.71 5.71 0 0 1 1-1.84 5.36 5.36 0 0 1 1.78-1.2 6.52 6.52 0 0 1 2.52-.45 6.16 6.16 0 0 1 2.4.43 5.37 5.37 0 0 1 1.78 1.14 5.27 5.27 0 0 1 1.44 3.76 6.82 6.82 0 0 1 -1.28 4 19.5 19.5 0 0 1 -3 3.43c.28.39.56.83.85 1.32s.61 1 1 1.57q1 1.78 2.07 3.27l2.27-3.1 2.61 1.82-3.14 4.05 3.18 5zm-9.38-6.78a4.06 4.06 0 0 0 .89 2.63 2.77 2.77 0 0 0 2.28 1.09 3.17 3.17 0 0 0 1.82-.6 5.82 5.82 0 0 0 1.32-1.18l-4-6.44a10.21 10.21 0 0 0 -1.59 2 4.75 4.75 0 0 0 -.72 2.5zm1.49-14.14a5.4 5.4 0 0 0 .45 2.05 15.17 15.17 0 0 0 1.16 2.21l.83-.85a6.15 6.15 0 0 0 .82-1.05 5.68 5.68 0 0 0 .62-1.26 4.13 4.13 0 0 0 .25-1.47 2.23 2.23 0 0 0 -.54-1.44 2 2 0 0 0 -3 .1 2.74 2.74 0 0 0 -.59 1.71z"/><path d="m107.17 29.43v-29.43h4.06l5.41 15.58h.08l5.38-15.58h4.09v29.43h-4.19v-17.9h-.08l-4.18 12.65h-2.1l-4.14-12.65h-.08v17.9z"/><path d="m129.54 15.5a15.73 15.73 0 0 1 .16-2.36 5.82 5.82 0 0 1 .62-1.9 5.74 5.74 0 0 1 2.13-2.19 7.33 7.33 0 0 1 6.74 0 5.74 5.74 0 0 1 2.13 2.19 5.82 5.82 0 0 1 .62 1.9 15.73 15.73 0 0 1 .16 2.36v6.9a15.64 15.64 0 0 1 -.16 2.36 5.6 5.6 0 0 1 -2.75 4.09 7.26 7.26 0 0 1 -6.74 0 5.6 5.6 0 0 1 -2.75-4.09 15.64 15.64 0 0 1 -.16-2.36zm4.21 7.56a2.57 2.57 0 0 0 .56 1.8 2.2 2.2 0 0 0 3 0 2.57 2.57 0 0 0 .56-1.8v-8.22a2.57 2.57 0 0 0 -.56-1.8 2.2 2.2 0 0 0 -3 0 2.57 2.57 0 0 0 -.56 1.8z"/><path d="m158.06 8.47-5.46 21h-3.72l-5.46-21h4.47l2.81 13.4h.08l2.81-13.4z"/><path d="m159.75 4.22v-4.22h4.25v4.22zm0 25.21v-21h4.25v21z"/><path d="m179.63 20.54h-8.35v2.86a2 2 0 0 0 .56 1.52 2.07 2.07 0 0 0 1.51.54 1.65 1.65 0 0 0 1.59-.7 3.73 3.73 0 0 0 .47-1.41h4.22a6 6 0 0 1 -3.63 5.83 6.55 6.55 0 0 1 -2.6.5 6.48 6.48 0 0 1 -3.37-.83 5.6 5.6 0 0 1 -2.75-4.09 15.58 15.58 0 0 1 -.17-2.36v-6.9a15.67 15.67 0 0 1 .17-2.36 5.82 5.82 0 0 1 .62-1.9 5.74 5.74 0 0 1 2.1-2.19 6.47 6.47 0 0 1 3.37-.82 6.68 6.68 0 0 1 2.62.49 5.83 5.83 0 0 1 2 1.37 6.77 6.77 0 0 1 1.65 4.67zm-8.35-3.3h4.13v-2.4a2.57 2.57 0 0 0 -.55-1.8 2 2 0 0 0 -1.51-.6 2 2 0 0 0 -1.51.6 2.57 2.57 0 0 0 -.56 1.8z"/></svg>