<svg viewBox="0 0 223.68 61.68" xmlns="http://www.w3.org/2000/svg"><g fill="#fff"><path d="m77.68 8.79v43.21c-.22.51-.46 1-.64 1.54a10.26 10.26 0 0 1 -9.91 7.22q-28.29.06-56.59 0a10.27 10.27 0 0 1 -9.9-7.23c-.18-.53-.43-1.07-.64-1.53v-43.21c.21-.51.46-1 .64-1.53a10.25 10.25 0 0 1 9.9-7.26q28.29 0 56.59 0a10.28 10.28 0 0 1 9.87 7.25c.23.52.47 1.03.68 1.54zm-6.59-1.23a5.54 5.54 0 0 0 -5-2.29q-17.92 0-35.87 0h-19a5.38 5.38 0 0 0 -4.65 2.29l1.1 1q14 12.18 27.94 24.35c2.16 1.9 4.38 1.83 6.62-.13l19.36-16.92c3.16-2.74 6.3-5.5 9.5-8.3zm-62.76 46.88c.05.18.09.36.14.54a15 15 0 0 0 2.62.45q27.77 0 55.53 0a17.51 17.51 0 0 0 3.15-.63l-22.77-19.8c-5.48 5.63-11 5.58-16.4 0zm63.79-4.1v-37.17l-21.33 18.6zm-66.56-37.18v37.18l21.33-18.58z"/><path d="m114.94 56a9.31 9.31 0 0 1 2.15-.3c1.72 0 3.08.92 3.08 2.46 0 1.33-.69 2.32-2.47 2.77a10.48 10.48 0 0 1 -1.47.18l-.52-1.44a8.27 8.27 0 0 0 1.38-.08c.91-.16 1.63-.62 1.63-1.44s-.72-1.15-1.65-1.15a7.7 7.7 0 0 0 -2.11.31c0 .89.06 1.75.06 2.14 0 1.39-.51 1.75-1.23 1.75-1.1 0-2.65-.94-2.65-2.13 0-1 1.14-2 2.51-2.59 0-.26 0-.52 0-.78v-.94h-.6c-.51 0-1.08 0-1.56-.05v-1.36a12.26 12.26 0 0 0 1.56.09h.64c0-.39 0-.72 0-.91a7.78 7.78 0 0 0 -.08-1h1.54c0 .21-.07.69-.09 1s0 .52 0 .8a15.25 15.25 0 0 0 2.06-.42v1.41c-.63.14-1.4.26-2.14.35v1zm-1.23 3.15c0-.28 0-.79 0-1.38-.69.35-1.14.81-1.14 1.21s.52.65.81.65.33-.06.33-.44zm4.62-6.46a24.88 24.88 0 0 1 2.75 1.58l-.68 1.15a17 17 0 0 0 -2.7-1.63z"/><path d="m123.77 55.74v5.93h-1.34v-10.15h4.33v4.22zm0-3.19v.61h1.73v-.61zm1.73 2.17v-.65h-1.73v.65zm.69 5.35v.63h-1.26v-4.18h4.39v3.55zm0-2.44v1.37h1.87v-1.37zm5.81 2.43c0 .75-.16 1.13-.64 1.35a5.68 5.68 0 0 1 -2.22.26 4.65 4.65 0 0 0 -.45-1.38h1.64s.3-.07.3-.27v-4.3h-3.07v-4.2h4.44zm-3.16-7.52v.62h1.79v-.62zm1.79 2.19v-.66h-1.79v.66z"/><path d="m135.65 54c0 .72 0 1.57.07 2.38.16 1.62.5 2.72 1.2 2.72.53 0 1-1.32 1.19-2.2l1.13 1.36c-.75 1.94-1.45 2.63-2.35 2.63-1.23 0-2.3-1.11-2.62-4.12-.1-1-.12-2.33-.12-3a7.33 7.33 0 0 0 -.08-1.13h1.72a8.84 8.84 0 0 0 -.14 1.36zm7.79 4.61-1.48.56c-.17-1.8-.77-4.43-2-5.82l1.42-.47a12.11 12.11 0 0 1 2.06 5.71z"/><path d="m150.4 51.1a11.35 11.35 0 0 0 4.84 3.9 7 7 0 0 0 -.87 1.21 14.87 14.87 0 0 1 -1.73-1.08v.78h-5.64v-.79a15.19 15.19 0 0 1 -1.75 1.11 5.8 5.8 0 0 0 -.85-1.1 11.91 11.91 0 0 0 4.61-4zm-4.15 5.9h7.18v4.64h-1.38v-.42h-4.47v.42h-1.33zm5.84-2.31a13 13 0 0 1 -2.33-2.3 11.52 11.52 0 0 1 -2.25 2.3zm-4.51 3.5v1.84h4.47v-1.8z"/><path d="m160.32 53.72c-.14.19-.38.55-.57.85v.33a5.5 5.5 0 0 1 3.3-1.17 3 3 0 0 1 3.09 3c0 2.27-1.42 3.63-4.2 4.18l-.67-1.36c2-.3 3.37-1.1 3.37-2.85a1.7 1.7 0 0 0 -1.82-1.66 4.69 4.69 0 0 0 -3.18 1.43v.93c0 .92 0 1.86.06 2.91 0 .2.06.61.09.86h-1.59c0-.24 0-.64 0-.83 0-.87 0-1.51 0-2.46-.47.71-1 1.52-1.41 2.07l-.79-1.23c.63-.77 1.76-2.26 2.4-3.2v-.78l-2 .26-.13-1.44h1s.82-.08 1.29-.15c0-.42.05-.73.05-.86a5.57 5.57 0 0 0 -.05-1h1.64c-.06.32-.16.9-.25 1.6z"/><path d="m175.41 51.84c0 .17-.06.66-.07 1s0 .84 0 1.21h.85l1.08-.08v1.38c-.2 0-.79 0-1.09 0s-.53 0-.86 0a21.53 21.53 0 0 1 -.17 2.24c-.12.59-.4.73-1 .73a13.66 13.66 0 0 1 -1.68-.17v-1.23a6.56 6.56 0 0 0 1 .13c.23 0 .32 0 .35-.26a11 11 0 0 0 .08-1.34c-1 .08-2.08.18-3 .28v2.54c0 1.09.13 1.34 1.82 1.34a20.7 20.7 0 0 0 3.35-.29l-.07 1.51a31.74 31.74 0 0 1 -3.19.18c-2.91 0-3.26-.61-3.31-2.55 0-.47 0-1.56 0-2.61l-.76.08c-.35 0-1.05.15-1.34.2l-.15-1.44c.32 0 .84 0 1.4-.07l.85-.07v-1.14a7.94 7.94 0 0 0 -.09-1.24h1.59a9.94 9.94 0 0 0 -.06 1.16v1.08l3.05-.28v-1.27a7.55 7.55 0 0 0 -.08-1z"/><path d="m188.15 53.14a4.25 4.25 0 0 0 -.24.79 11.69 11.69 0 0 1 -1.7 4.13 9.15 9.15 0 0 1 -4.55 3.12l-1.24-1.36a7.45 7.45 0 0 0 4.44-2.65 7.18 7.18 0 0 0 1.33-3.17h-5.28c-.51 0-1 0-1.35 0v-1.57c.34 0 1 .09 1.36.09h5.23a3.8 3.8 0 0 0 .9-.09z"/><path d="m198.33 55.27a7.69 7.69 0 0 0 .92-.07v1.37h-.86-1.39c0 1.35.06 2.89.08 4a1 1 0 0 1 -1.1 1c-.54 0-1.25 0-1.76-.06l-.09-1.29a10 10 0 0 0 1.31.1c.21 0 .29-.12.29-.35 0-.55 0-1.38 0-2.24a13 13 0 0 1 -3.66 3l-1-1.14a11.35 11.35 0 0 0 4-3h-2.43c-.32 0-.73 0-1.06 0v-1.39a8.62 8.62 0 0 0 1 .07h3.08c0-.25 0-.48 0-.69s0-.63-.09-.94h1.43a7 7 0 0 0 -.05.94v.69z"/><path d="m201.77 55.44c.4 0 1.23.07 1.82.07h6.08c.52 0 1 0 1.32-.07v1.78c-.27 0-.84-.06-1.32-.06h-6.08c-.65 0-1.4 0-1.82.06z"/><path d="m221.3 61.19c-.14-.38-.32-.85-.53-1.33-1.84.21-5.28.57-6.7.72l-1.07.14-.26-1.66h1.56c.65-1.68 1.63-4.78 1.95-6a8.62 8.62 0 0 0 .28-1.3l1.8.37a12.16 12.16 0 0 0 -.49 1.25c-.36 1.11-1.28 4-1.85 5.51 1.39-.14 3-.32 4.14-.46a14.7 14.7 0 0 0 -1.19-2.07l1.41-.58a33.79 33.79 0 0 1 2.48 4.71z"/><path d="m126 27.69v2.21a8 8 0 0 1 -.6 3.1 8.89 8.89 0 0 1 -1.73 2.63 8.34 8.34 0 0 1 -2.59 1.83 7.46 7.46 0 0 1 -3.19.68 11.39 11.39 0 0 1 -3-.4 7 7 0 0 1 -2.71-1.4 7.89 7.89 0 0 1 -2-2.59 9.12 9.12 0 0 1 -.78-4v-19.68a8.8 8.8 0 0 1 .6-3.27 7.68 7.68 0 0 1 1.71-2.61 8 8 0 0 1 2.63-1.73 8.86 8.86 0 0 1 3.39-.63 7.8 7.8 0 0 1 5.88 2.36 8.47 8.47 0 0 1 1.73 2.74 9.19 9.19 0 0 1 .63 3.44v2h-5.12v-1.7a4.12 4.12 0 0 0 -.86-2.61 2.76 2.76 0 0 0 -2.25-1.06 2.61 2.61 0 0 0 -2.53 1.18 6.31 6.31 0 0 0 -.63 3v18.22a4.76 4.76 0 0 0 .68 2.61 2.66 2.66 0 0 0 2.43 1.05 3.9 3.9 0 0 0 1.08-.17 3.15 3.15 0 0 0 1.08-.58 3.24 3.24 0 0 0 .76-1.11 4.43 4.43 0 0 0 .3-1.75v-1.76z"/><path d="m129.44 21a19.35 19.35 0 0 1 .2-2.86 7.06 7.06 0 0 1 .76-2.31 6.93 6.93 0 0 1 2.6-2.7 8.81 8.81 0 0 1 8.19 0 6.93 6.93 0 0 1 2.58 2.66 6.83 6.83 0 0 1 .75 2.31 18 18 0 0 1 .21 2.86v8.39a18.11 18.11 0 0 1 -.21 2.86 6.83 6.83 0 0 1 -.75 2.31 6.93 6.93 0 0 1 -2.58 2.66 8.88 8.88 0 0 1 -8.19 0 6.93 6.93 0 0 1 -2.58-2.66 7.06 7.06 0 0 1 -.76-2.31 19.45 19.45 0 0 1 -.2-2.86zm5.12 9.19a3.09 3.09 0 0 0 .68 2.18 2.36 2.36 0 0 0 1.83.73 2.4 2.4 0 0 0 1.84-.73 3.09 3.09 0 0 0 .67-2.18v-10a3.14 3.14 0 0 0 -.67-2.19 2.43 2.43 0 0 0 -1.84-.72 2.39 2.39 0 0 0 -1.83.72 3.14 3.14 0 0 0 -.68 2.19z"/><path d="m148.47 37.88v-25.45h5.12v2.46h.1a7.22 7.22 0 0 1 1.94-2 4.94 4.94 0 0 1 2.88-.78 5.82 5.82 0 0 1 1.91.33 4.44 4.44 0 0 1 1.71 1.08 5.47 5.47 0 0 1 1.2 1.93 8.16 8.16 0 0 1 .45 2.89v19.54h-5.12v-17.62a3.42 3.42 0 0 0 -.65-2.21 2.24 2.24 0 0 0 -1.86-.8 2.17 2.17 0 0 0 -2 .9 5.12 5.12 0 0 0 -.55 2.61v17.12z"/><path d="m168 12.43v-7.74h5.12v7.74h3.17v4h-3.17v14.12a4.39 4.39 0 0 0 .18 1.45 1.42 1.42 0 0 0 .58.75 2.06 2.06 0 0 0 1 .3c.38 0 .86.05 1.43.05v4.82h-2.11a6.92 6.92 0 0 1 -2.94-.55 5.29 5.29 0 0 1 -1.88-1.41 5.53 5.53 0 0 1 -1-1.93 7.09 7.09 0 0 1 -.33-2.08v-15.51h-2.56v-4z"/><path d="m187.93 37.88v-2.61h-.1a9.28 9.28 0 0 1 -2 2.16 4.85 4.85 0 0 1 -2.89.75 6.54 6.54 0 0 1 -1.83-.27 5 5 0 0 1 -3.16-3.07 9.43 9.43 0 0 1 -.53-3.43 18.56 18.56 0 0 1 .35-3.8 6.06 6.06 0 0 1 1.31-2.73 5.36 5.36 0 0 1 2.46-1.58 12.27 12.27 0 0 1 4-.53h.46a3.12 3.12 0 0 1 .55.05 3.45 3.45 0 0 0 .6.05 6.59 6.59 0 0 1 .75.05v-2.66a3.89 3.89 0 0 0 -.55-2.16 2.21 2.21 0 0 0 -2-.85 2.85 2.85 0 0 0 -1.83.65 3.1 3.1 0 0 0 -1.08 1.91h-5a8.21 8.21 0 0 1 2.31-5.53 7.31 7.31 0 0 1 2.41-1.58 8.35 8.35 0 0 1 3.16-.58 8.83 8.83 0 0 1 3 .51 6.91 6.91 0 0 1 2.46 1.5 7.36 7.36 0 0 1 1.6 2.51 9.3 9.3 0 0 1 .61 3.52v17.72zm0-10.94a8.37 8.37 0 0 0 -1.4-.15 5.11 5.11 0 0 0 -2.84.77 3.15 3.15 0 0 0 -1.18 2.84 3.78 3.78 0 0 0 .7 2.36 2.36 2.36 0 0 0 2 .9 2.54 2.54 0 0 0 2-.85 3.63 3.63 0 0 0 .72-2.41z"/><path d="m202.24 30.55a2.47 2.47 0 0 0 .68 1.86 2.54 2.54 0 0 0 1.83.65 2 2 0 0 0 1.94-.85 4.63 4.63 0 0 0 .58-1.71h5.12a7.34 7.34 0 0 1 -2.06 5.42 7.16 7.16 0 0 1 -2.41 1.66 8 8 0 0 1 -3.17.6 7.85 7.85 0 0 1 -4.09-1 6.93 6.93 0 0 1 -2.58-2.66 7.06 7.06 0 0 1 -.76-2.31 19.45 19.45 0 0 1 -.2-2.86v-8.35a19.35 19.35 0 0 1 .2-2.86 7.06 7.06 0 0 1 .76-2.31 6.93 6.93 0 0 1 2.58-2.66 7.85 7.85 0 0 1 4.09-1 8.14 8.14 0 0 1 3.19.61 7.11 7.11 0 0 1 2.44 1.65 8.53 8.53 0 0 1 2 5.88h-5.12a3.3 3.3 0 0 0 -.68-2.29 2.7 2.7 0 0 0 -3.67 0 3.14 3.14 0 0 0 -.68 2.19z"/><path d="m215.4 12.43v-7.74h5.12v7.74h3.16v4h-3.16v14.12a4.39 4.39 0 0 0 .18 1.45 1.36 1.36 0 0 0 .57.75 2.14 2.14 0 0 0 1 .3c.39 0 .86.05 1.43.05v4.82h-2.11a6.84 6.84 0 0 1 -2.93-.55 5.16 5.16 0 0 1 -2.93-3.37 7.09 7.09 0 0 1 -.33-2.08v-15.48h-2.56v-4z"/></g></svg>