<svg viewBox="0 0 325.46 65" xmlns="http://www.w3.org/2000/svg"><g fill="#fff"><path d="m103.52 58.1a9.31 9.31 0 0 1 2.15-.3c1.72 0 3.08.92 3.08 2.46 0 1.32-.69 2.32-2.47 2.76a8.16 8.16 0 0 1 -1.47.18l-.52-1.43a9.5 9.5 0 0 0 1.38-.08c.91-.16 1.63-.63 1.63-1.44s-.68-1.2-1.65-1.2a8 8 0 0 0 -2.1.3v2.15c0 1.39-.51 1.75-1.23 1.75-1.1 0-2.65-.94-2.65-2.13 0-1 1.14-2 2.51-2.59 0-.26 0-.52 0-.78v-.94h-.6c-.51 0-1.08 0-1.56-.06v-1.35a14.17 14.17 0 0 0 1.55.09h.64c0-.39 0-.72 0-.91a7.63 7.63 0 0 0 -.08-1h1.54c0 .2-.07.69-.09 1s0 .53 0 .81a15.25 15.25 0 0 0 2.06-.42v1.4a20.35 20.35 0 0 1 -2.14.35v1zm-1.23 3.15c0-.29 0-.8 0-1.39-.69.36-1.14.82-1.14 1.22s.52.65.82.65.32-.1.32-.48zm4.62-6.46a24.88 24.88 0 0 1 2.75 1.58l-.66 1.15a17 17 0 0 0 -2.7-1.63z"/><path d="m112 57.27h-1.18v-2.27h4.26v-.43h-3.49v-1h8.34v1h-3.53v.43h4.36v2.3h-1.25v-1.4h-3.11v2.35h-1.32v-2.38h-3.08zm7.26 5.39c.57 0 .67-.17.75-1.13a3.52 3.52 0 0 0 1.12.43c-.16 1.36-.52 1.73-1.75 1.73h-2.38c-1.55 0-2-.33-2-1.52h-1.88v.5h-1.28v-4.14h7.83v3.61h-3.38c0 .42.12.49.81.49zm-7-5.29h2.45v.74h-2.51zm2.45-.39h-2.23v-.73h2.23zm-1.54 2.45v.5h1.83v-.5zm1.88 1.8v-.48h-1.88v.48zm3.34-1.8h-2v.5h2zm0 1.8v-.48h-2v.48zm.68-5v.77h-2.27v-.73zm-2.21 1.12h2.47v.74h-2.53z"/><path d="m121.78 55.06h4.3v1.07h-4.3zm4 8.21h-2.35v.44h-1.14v-3.86h3.49zm-.06-5.58h-3.39v-1h3.39zm-3.39.57h3.39v1h-3.39zm3.41-3.74h-3.34v-1h3.34zm-2.31 6.4v1.29h1.21v-1.29zm6.57-3.24v1.49h2v4.51h-1.35v-.5h-2.65v.55h-1.27v-4.56h1.84v-1.49h-2.43v-1.26h2.43v-1.42c-.63.08-1.28.14-1.88.18a4 4 0 0 0 -.36-1.13 24.53 24.53 0 0 0 4.8-.83l.95 1.12a16.62 16.62 0 0 1 -2.14.47v1.57h2.44v1.26zm.63 2.7h-2.63v1.62h2.57z"/><path d="m134.64 54.94 4.85-.43c1.15-.09 2.38-.16 3.17-.19v1.45a12.06 12.06 0 0 0 -2.16.14 3.41 3.41 0 0 0 -2.37 3.14c0 1.84 1.72 2.51 3.62 2.6l-.52 1.55c-2.35-.14-4.57-1.41-4.57-3.85a4.45 4.45 0 0 1 1.65-3.45c-1 .1-3.33.35-4.63.64l-.13-1.54zm7.36 3.45-.86.39a8.85 8.85 0 0 0 -.88-1.58l.84-.35a14.75 14.75 0 0 1 .9 1.54zm1.32-.55-.85.41a9.7 9.7 0 0 0 -.93-1.53l.83-.39c.28.4.71 1.07.95 1.51z"/><path d="m149.37 61.88c.43-.06.75-.11 1-.18a3 3 0 0 0 2.55-3 2.78 2.78 0 0 0 -2.35-3 24.38 24.38 0 0 1 -.66 3.05c-.67 2.26-1.65 3.64-2.87 3.64s-2.28-1.37-2.28-3.26a5 5 0 0 1 5.16-4.8 4.28 4.28 0 0 1 4.53 4.38c0 2.36-1.45 4-4.28 4.46zm-.87-3.4a18.52 18.52 0 0 0 .6-2.71 3.5 3.5 0 0 0 -2.84 3.23c0 1.13.45 1.68.87 1.68s.87-.68 1.37-2.2z"/><path d="m160.11 58.1a9.31 9.31 0 0 1 2.15-.3c1.72 0 3.08.92 3.08 2.46 0 1.32-.69 2.32-2.47 2.76a8.16 8.16 0 0 1 -1.47.18l-.52-1.43a9.59 9.59 0 0 0 1.38-.08c.91-.16 1.63-.63 1.63-1.44s-.68-1.2-1.65-1.2a8.08 8.08 0 0 0 -2.11.3c0 .9.06 1.76.06 2.15 0 1.39-.51 1.75-1.24 1.75-1.09 0-2.65-.94-2.65-2.13 0-1 1.15-2 2.52-2.59 0-.26 0-.52 0-.78v-.94h-.6c-.51 0-1.08 0-1.57-.06v-1.35a14.3 14.3 0 0 0 1.55.09h.65c0-.39 0-.72 0-.91a9.93 9.93 0 0 0 -.08-1h1.54c0 .2-.07.69-.09 1s0 .53 0 .81a15.25 15.25 0 0 0 2.06-.42v1.4a20.35 20.35 0 0 1 -2.14.35v1zm-1.23 3.15c0-.29 0-.8 0-1.39-.69.36-1.14.82-1.14 1.22s.52.65.81.65.33-.1.33-.48zm4.61-6.46a25.08 25.08 0 0 1 2.76 1.58l-.68 1.15a17.91 17.91 0 0 0 -2.7-1.63z"/><path d="m168.94 57.79v5.94h-1.34v-10.15h4.32v4.21zm0-3.18v.61h1.73v-.61zm1.73 2.16v-.64h-1.73v.64zm.69 5.36v.63h-1.26v-4.19h4.38v3.56zm0-2.45v1.32h1.87v-1.32zm5.78 2.44c0 .75-.15 1.13-.63 1.34a5.46 5.46 0 0 1 -2.22.27 4.81 4.81 0 0 0 -.45-1.39h1.64s.29-.07.29-.28v-4.26h-3.06v-4.22h4.43zm-3.14-7.52v.62h1.78v-.62zm1.78 2.19v-.66h-1.78v.66z"/><path d="m180.82 56c0 .72 0 1.57.07 2.38.16 1.61.49 2.71 1.2 2.71.53 0 1-1.31 1.19-2.19l1.13 1.35c-.75 2-1.45 2.64-2.36 2.64-1.22 0-2.29-1.11-2.61-4.12-.1-1-.13-2.33-.13-3a6.26 6.26 0 0 0 -.08-1.13h1.73a8.84 8.84 0 0 0 -.14 1.36zm7.79 4.61-1.48.56c-.17-1.8-.77-4.44-2-5.82l1.43-.47a12.29 12.29 0 0 1 2.05 5.77z"/><path d="m195.57 53.16a11.42 11.42 0 0 0 4.84 3.9 6.52 6.52 0 0 0 -.87 1.21 14.07 14.07 0 0 1 -1.73-1.08v.81h-5.64v-.79a15.19 15.19 0 0 1 -1.75 1.11 6.24 6.24 0 0 0 -.85-1.1 12 12 0 0 0 4.6-4zm-4.15 5.93h7.18v4.65h-1.38v-.42h-4.47v.42h-1.33zm5.83-2.3a13 13 0 0 1 -2.32-2.3 11.52 11.52 0 0 1 -2.25 2.3zm-4.5 3.49v1.85h4.47v-1.85z"/><path d="m205.49 55.78c-.15.19-.38.55-.58.85v.33a5.48 5.48 0 0 1 3.3-1.17 3 3 0 0 1 3.09 3c0 2.27-1.42 3.62-4.2 4.18l-.67-1.36c2-.3 3.37-1.1 3.37-2.85a1.71 1.71 0 0 0 -1.8-1.65 4.7 4.7 0 0 0 -3.18 1.44v.93c0 .92 0 1.86.06 2.91 0 .2.06.61.08.86h-1.54c0-.24 0-.65 0-.83 0-.87 0-1.51 0-2.46-.47.71-1 1.52-1.41 2.07l-.89-1.25c.64-.77 1.77-2.26 2.4-3.2l.05-.78-2 .26-.13-1.44h1s.81-.08 1.29-.15c0-.42 0-.74 0-.86a5.68 5.68 0 0 0 0-1h1.64c-.07.32-.16.89-.25 1.6z"/><path d="m220.58 53.9c0 .17-.06.65-.07 1s0 .84 0 1.21l.85-.06 1.07-.07v1.38c-.19 0-.78 0-1.08 0h-.86a21.53 21.53 0 0 1 -.17 2.25c-.12.58-.4.73-1 .73a14 14 0 0 1 -1.69-.17v-1.23a6.56 6.56 0 0 0 1 .13c.23 0 .32 0 .35-.26a11 11 0 0 0 .08-1.34c-1 .07-2.08.18-3.05.28v2.53c0 1.1.13 1.35 1.81 1.35a20.83 20.83 0 0 0 3.36-.29l-.06 1.54a31.74 31.74 0 0 1 -3.19.18c-2.91 0-3.26-.61-3.31-2.55 0-.47 0-1.56 0-2.61l-.76.08c-.35 0-1 .15-1.35.2l-.14-1.44c.31 0 .83 0 1.4-.07l.85-.08v-1.12a9.37 9.37 0 0 0 -.09-1.24h1.58a9.94 9.94 0 0 0 -.06 1.16v1.08l3.06-.29v-1.26a7.42 7.42 0 0 0 -.08-1z"/><path d="m103 11.57a8 8 0 0 1 .62-3.21 7.43 7.43 0 0 1 1.73-2.36 7.16 7.16 0 0 1 2.43-1.53 8.14 8.14 0 0 1 5.78 0 7.16 7.16 0 0 1 2.44 1.53 7.56 7.56 0 0 1 1.68 2.41 7.79 7.79 0 0 1 .63 3.21v21a7.73 7.73 0 0 1 -.63 3.21 7.56 7.56 0 0 1 -1.68 2.35 7.34 7.34 0 0 1 -2.43 1.54 8.29 8.29 0 0 1 -5.78 0 7.34 7.34 0 0 1 -2.43-1.54 7.43 7.43 0 0 1 -1.69-2.41 7.89 7.89 0 0 1 -.62-3.21zm5.12 21a2.5 2.5 0 0 0 .7 1.83 2.61 2.61 0 0 0 3.62 0 2.54 2.54 0 0 0 .7-1.83v-21a2.58 2.58 0 0 0 -.7-1.83 2.61 2.61 0 0 0 -3.62 0 2.54 2.54 0 0 0 -.7 1.83z"/><path d="m122.87 39.94 9-30.93h-5.63v4.12h-4.52v-8.94h15.28v5.12l-8.69 30.63z"/><path d="m153.8 4.19-5.83 15 .1.1a1.9 1.9 0 0 1 .78-.33 6.32 6.32 0 0 1 1.38-.13 5.28 5.28 0 0 1 4.32 2.31 5.72 5.72 0 0 1 .55 1.11 7.91 7.91 0 0 1 .35 1.45c.07.61.12 1.37.16 2.29s0 2.08 0 3.49v2.88s-.09 1.39-.16 1.89a7 7 0 0 1 -.37 1.35 9.64 9.64 0 0 1 -.58 1.16 6.89 6.89 0 0 1 -2.69 2.56 7.89 7.89 0 0 1 -3.79.9 7.54 7.54 0 0 1 -3.76-.93 7.26 7.26 0 0 1 -2.66-2.53 6.38 6.38 0 0 1 -.63-1.16 5.44 5.44 0 0 1 -.33-1.35 12.31 12.31 0 0 1 -.2-1.89c0-.75-.05-1.71-.05-2.88s0-2 .05-2.74.09-1.35.15-1.88a8.79 8.79 0 0 1 .3-1.38c.14-.42.29-.86.46-1.33l6.72-18zm-3.27 21.74a2.4 2.4 0 0 0 -.75-1.85 2.52 2.52 0 0 0 -3.51 0 2.37 2.37 0 0 0 -.76 1.85v6.63a2.41 2.41 0 0 0 .76 1.86 2.55 2.55 0 0 0 3.51 0 2.43 2.43 0 0 0 .75-1.86z"/><path d="m172.48 4.19-5.83 15 .1.1a1.9 1.9 0 0 1 .78-.33 6.32 6.32 0 0 1 1.38-.13 5 5 0 0 1 2.51.66 5.07 5.07 0 0 1 1.81 1.65 5.72 5.72 0 0 1 .55 1.11 8.83 8.83 0 0 1 .35 1.45c.07.61.12 1.37.15 2.29s.05 2.08.05 3.49c0 1.17 0 2.13-.05 2.88s-.08 1.39-.15 1.89a7 7 0 0 1 -.37 1.35 9.64 9.64 0 0 1 -.58 1.16 7 7 0 0 1 -2.69 2.56 7.89 7.89 0 0 1 -3.79.9 7.54 7.54 0 0 1 -3.76-.93 7.28 7.28 0 0 1 -2.67-2.53 7 7 0 0 1 -.62-1.16 5.44 5.44 0 0 1 -.33-1.35 12.31 12.31 0 0 1 -.2-1.89c0-.75-.05-1.71-.05-2.88s0-2 .05-2.74.08-1.35.15-1.88a8.79 8.79 0 0 1 .3-1.38l.45-1.33 6.73-18zm-3.27 21.74a2.4 2.4 0 0 0 -.75-1.85 2.54 2.54 0 0 0 -3.52 0 2.4 2.4 0 0 0 -.75 1.85v6.63a2.43 2.43 0 0 0 .75 1.86 2.56 2.56 0 0 0 3.52 0 2.43 2.43 0 0 0 .75-1.86z"/><path d="m178.25 28.59v-5.12h15.11v5.12z"/><path d="m199.14 39.94 5.82-15-.1-.1a2.22 2.22 0 0 1 -.78.33 6.41 6.41 0 0 1 -1.38.12 5.08 5.08 0 0 1 -2.51-.65 5.19 5.19 0 0 1 -1.81-1.64 4.23 4.23 0 0 1 -.55-1.08 7.36 7.36 0 0 1 -.3-1.48 17.7 17.7 0 0 1 -.2-2.28c0-.92-.05-2.09-.05-3.49 0-1.18 0-2.14.05-2.89a13.52 13.52 0 0 1 .2-1.93 5.44 5.44 0 0 1 .33-1.31 9.41 9.41 0 0 1 .57-1.15 7 7 0 0 1 2.69-2.57 7.89 7.89 0 0 1 3.79-.9 7.58 7.58 0 0 1 3.77.93 7.36 7.36 0 0 1 2.66 2.54c.23.4.43.78.6 1.15a5.8 5.8 0 0 1 .4 1.31c.07.53.12 1.18.15 1.93s0 1.71 0 2.89 0 2 0 2.73-.08 1.33-.15 1.84-.21 1-.33 1.43-.25.86-.42 1.33l-6.73 18zm3.26-21.74a2.43 2.43 0 0 0 .75 1.86 2.56 2.56 0 0 0 3.52 0 2.43 2.43 0 0 0 .75-1.86v-6.63a2.4 2.4 0 0 0 -.75-1.85 2.54 2.54 0 0 0 -3.52 0 2.4 2.4 0 0 0 -.75 1.85z"/><path d="m216 39.94v-4.82l9.23-17.42a6.4 6.4 0 0 0 .81-2.29c.06-.65.1-1.46.1-2.43q0-.66 0-1.38a3.35 3.35 0 0 0 -.27-1.28 2.36 2.36 0 0 0 -.76-.93 2.39 2.39 0 0 0 -1.52-.39 2.5 2.5 0 0 0 -1.83.66 2.48 2.48 0 0 0 -.68 1.9v2.92h-5.08v-2.81a7.66 7.66 0 0 1 2.26-5.47 7.45 7.45 0 0 1 2.41-1.68 7.25 7.25 0 0 1 3-.63 7.47 7.47 0 0 1 3.44.73 6.83 6.83 0 0 1 2.38 2 8.64 8.64 0 0 1 1.33 2.86 13.08 13.08 0 0 1 .43 3.42c0 .87 0 1.6-.05 2.18a12.81 12.81 0 0 1 -.2 1.69 7.57 7.57 0 0 1 -.5 1.6c-.24.54-.56 1.19-1 2l-7.5 14.45h9.24v5.12z"/><path d="m235.14 28.59v-5.12h15.11v5.12z"/><path d="m254.17 11.57a7.79 7.79 0 0 1 .62-3.21 7.56 7.56 0 0 1 1.68-2.36 7.3 7.3 0 0 1 2.44-1.53 8.12 8.12 0 0 1 5.77 0 7.2 7.2 0 0 1 2.44 1.53 7.56 7.56 0 0 1 1.68 2.41 7.79 7.79 0 0 1 .63 3.21v21a7.73 7.73 0 0 1 -.63 3.21 7.56 7.56 0 0 1 -1.68 2.41 7.38 7.38 0 0 1 -2.44 1.54 8.26 8.26 0 0 1 -5.77 0 7.35 7.35 0 0 1 -4.12-3.95 7.73 7.73 0 0 1 -.62-3.21zm5.12 21a2.5 2.5 0 0 0 .7 1.83 2.6 2.6 0 0 0 3.61 0 2.51 2.51 0 0 0 .71-1.83v-21a2.54 2.54 0 0 0 -.71-1.83 2.6 2.6 0 0 0 -3.61 0 2.54 2.54 0 0 0 -.7 1.83z"/><path d="m272.84 13.53c0-1 0-1.8.1-2.48a8.31 8.31 0 0 1 .36-1.79 7.61 7.61 0 0 1 .57-1.35 10.85 10.85 0 0 1 .83-1.26 6.9 6.9 0 0 1 2.51-2 7.67 7.67 0 0 1 6.53 0 6.9 6.9 0 0 1 2.51 2 12.71 12.71 0 0 1 .85 1.26 7 7 0 0 1 .61 1.35 7.87 7.87 0 0 1 .32 1.79c.05.68.08 1.51.08 2.48s0 2-.05 2.71a9.08 9.08 0 0 1 -.3 2 4.62 4.62 0 0 1 -.78 1.53 9.61 9.61 0 0 1 -1.43 1.43 7.66 7.66 0 0 1 1.45 1.37 4.81 4.81 0 0 1 .78 1.66 11.73 11.73 0 0 1 .3 2.33c0 .92.05 2.05.05 3.39 0 1.1 0 2-.08 2.74a16.85 16.85 0 0 1 -.22 1.88 5.23 5.23 0 0 1 -.43 1.35 11.19 11.19 0 0 1 -.68 1.16 7.23 7.23 0 0 1 -2.41 2.23 8.29 8.29 0 0 1 -7.63 0 7.23 7.23 0 0 1 -2.41-2.23 11.19 11.19 0 0 1 -.68-1.16 5.23 5.23 0 0 1 -.43-1.35 16.85 16.85 0 0 1 -.22-1.88c-.05-.72-.08-1.64-.08-2.74 0-1.34 0-2.47.05-3.39a11.73 11.73 0 0 1 .3-2.33 4.81 4.81 0 0 1 .78-1.66 7.66 7.66 0 0 1 1.43-1.41 9.61 9.61 0 0 1 -1.42-1.43 4.62 4.62 0 0 1 -.78-1.53 9.08 9.08 0 0 1 -.3-2c-.06-.69-.08-1.6-.08-2.67zm10.15-2a2.4 2.4 0 0 0 -.76-1.78 2.47 2.47 0 0 0 -3.51 0 2.4 2.4 0 0 0 -.76 1.78v5.23a2.4 2.4 0 0 0 .76 1.78 2.5 2.5 0 0 0 3.51 0 2.4 2.4 0 0 0 .76-1.78zm0 14.06a2.4 2.4 0 0 0 -.76-1.78 2.47 2.47 0 0 0 -3.51 0 2.4 2.4 0 0 0 -.76 1.78v7a2.54 2.54 0 0 0 2.51 2.51 2.43 2.43 0 0 0 1.76-.73 2.39 2.39 0 0 0 .76-1.78z"/><path d="m292.68 39.94 9-30.93h-5.68v4.12h-4.52v-8.94h15.26v5.12l-8.64 30.63z"/><path d="m311.35 39.94 9-30.93h-5.62v4.12h-4.53v-8.94h15.26v5.12l-8.68 30.63z"/><path d="m59 65a33.42 33.42 0 0 1 -6.39-.63l-.6-.12-.49-.1-.34-.06a47.5 47.5 0 0 1 -7.75-2.31c-1.45-.57-2.91-1.21-4.34-1.9l-.22-.09-.79-.37c-2.27-1.1-4.43-2.24-6.41-3.39l-.7-.41c-1.72-1-3.31-2-4.73-2.94l-.34-.23c-1.39-.93-2.9-2-4.5-3.19l-.69-.52c-1.85-1.4-3.73-3-5.61-4.61l-.52-.46-.29-.27c-1.17-1-2.34-2.16-3.45-3.29a46.41 46.41 0 0 1 -5.13-6.26l-.27-.42-.23-.43-.28-.41a33.39 33.39 0 0 1 -3.49-6.76 22.59 22.59 0 0 1 -1.44-7.48 19.25 19.25 0 0 1 .2-2.59v-.21a30.45 30.45 0 0 1 4.6-9.72l2.81-4.23a3.59 3.59 0 0 1 2.28-1.53 3.55 3.55 0 0 1 2.69.53l18.85 12.53a3.59 3.59 0 0 1 1 5l-6 9a81.43 81.43 0 0 0 23 15.29l6-9a3.6 3.6 0 0 1 2.29-1.53 3.55 3.55 0 0 1 2.69.53l18.83 12.51a3.58 3.58 0 0 1 1 5l-4.69 7.07a16.52 16.52 0 0 1 -6.44 5.88c-.53.23-1 .42-1.48.6a22.07 22.07 0 0 1 -7.38 1.52zm-25.68-13.82.9.53c1.86 1.08 3.9 2.16 6.06 3.2l.7.33.25.11c1.37.66 2.72 1.25 4.07 1.78a41.59 41.59 0 0 0 6.92 2.06l.28.05h.25l.32.07.51.1a27.65 27.65 0 0 0 6.46.52 17.39 17.39 0 0 0 5.79-1.21c.46-.17.85-.33 1.23-.49a11.85 11.85 0 0 0 4.32-4.09l3.91-5.88-16.49-11-7.51 11.39-1.9-.79a86.66 86.66 0 0 1 -28-18.6l-1.39-1.44 7.51-11.31-16.51-10.96-2 3a25.32 25.32 0 0 0 -3.83 7.93 15.45 15.45 0 0 0 -.17 1.73 17.49 17.49 0 0 0 1.12 5.9 28.69 28.69 0 0 0 3 5.76l.21.3.38.56c.1.16.14.23.2.31a40.4 40.4 0 0 0 4.57 5.57c1 1.06 2.11 2.09 3.22 3.08l.25.23c.21.19.36.33.52.46 1.78 1.58 3.57 3 5.3 4.36l.68.51c1.53 1.14 3 2.16 4.26 3l.4.27c1.22.84 2.65 1.73 4.21 2.66z"/></g></svg>