<svg enable-background="new 0 0 130 110" viewBox="0 0 130 110" xmlns="http://www.w3.org/2000/svg"><path d="m0 0h130v110l-65-21.6-65 21.6z" fill="#50a0b4"/><g fill="none" stroke="#fff" stroke-miterlimit="10" stroke-width=".43"><path d="m6 103 .7-.2"/><path d="m8 102.3 57-19.3 57.7 19.6" stroke-dasharray="1.42 1.42"/><path d="m123.3 102.8.7.2"/><path d="m5.6 103v-103" stroke-dasharray="1.42 1.42"/><path d="m124.4 103v-103" stroke-dasharray="1.42 1.42"/></g><g fill="#fff"><path d="m24.8 62.2c0 .3 0 .5-.1.8s-.5.6-.8.5c-.6 0-1.2-.2-1.7-.6-.3-.2-.5-.6-.5-1 .1-.5.3-1 .8-1.3.4-.3.8-.6 1.3-.8v-1.4h-.4-1.4v-1c.4.1.7.1 1.1.1h.7v-.6c0-.4 0-.7 0-1h1.2c0 .3-.1.7 0 1v.6l1.8-.3v1l-1 .2c-.3 0-.5.1-.8.1v1.2c.6-.2 1.2-.3 1.9-.3 1.3-.1 2.4.8 2.6 2.1v.1c0 1.1-.8 2-1.9 2.1h-.1c-.7 0-1.3-.4-1.5-1-.1-.4-.2-.8-.2-1.2.4-.1.7-.2 1-.4v.4c0 .3 0 .6.1.8s.3.3.6.3c.5 0 .9-.4.9-1 0-.8-.6-1.3-1.6-1.3-.6 0-1.2.1-1.7.3zm-1-1.4c-.7.4-1.1.8-1.1 1.1 0 .2.1.3.3.4s.4.2.6.2c.1 0 .2-.1.2-.4zm5-1.9c-.5-.8-1.1-1.4-1.8-2l.9-.6c.7.5 1.3 1.1 1.8 1.9z"/><path d="m31.9 62.8v1.1h-1c0-.4 0-.7 0-1.1v-6c0-.3 0-.7 0-1h.9 1.6.9v.8 1.5.8h-.8-1.6zm0-5.7h1.6v-.5h-1.6zm0 1.1h1.6v-.5h-1.6zm4.6 3.6v.6c-.2 0-.4 0-.6 0h-2v.6h-1c0-.3 0-.6 0-.9v-2c0-.2 0-.4 0-.6h.7 2.2.7v.6zm-2.6-.2h1.7v-1.2h-1.8zm4.6 1.2c0 .5-.1.7-.3.9-.3.1-.6.2-1 .2-.2 0-.2 0-.8 0 0-.3-.1-.7-.2-1 .4 0 .8.1 1.1.1s.3 0 .3-.2v-3.8h-1.8-.8c0-.2 0-.4 0-.8v-1.5c0-.3 0-.6 0-.8h.9 1.7.9v1zm-2.6-5.7h1.7v-.5h-1.7zm0 1.1h1.7v-.5h-1.7z"/><path d="m41.4 56.5c-.1.5-.1.9-.1 1.4 0 .8.1 1.6.2 2.4.2 1 .5 1.5.7 1.5.1 0 .3-.1.4-.4.2-.5.4-1.1.5-1.7.3.3.6.6.9.8-.5 1.8-1 2.5-1.8 2.5-.6 0-1.1-.4-1.5-1.3-.5-1.5-.7-3.1-.6-4.8 0-.3 0-.4 0-.6zm4.3.4c1.1 1.4 1.8 3.1 2 4.9l-1.1.4c-.1-.9-.3-1.8-.6-2.6s-.7-1.6-1.3-2.2z"/><path d="m50.5 58.6c-.5.3-.9.6-1.5.8-.1-.3-.3-.6-.5-.9.8-.3 1.6-.8 2.3-1.3.6-.4 1-.9 1.4-1.5h1.1c.4.6.9 1.1 1.5 1.5.7.5 1.5 1 2.3 1.2-.2.3-.4.6-.5 1-.5-.2-1-.5-1.5-.8v.6c-.3 0-.5 0-.8 0h-3.1c-.3 0-.5 0-.8 0zm-.8 5.3c0-.3.1-.7.1-1v-2.1c0-.3 0-.6 0-.9h.8 4.5.8c0 .3-.1.6 0 .9v2.1 1h-1.1v-.5h-4v.5zm1.1-1.4h4v-1.7h-4zm3.5-4.3h.3c-.7-.5-1.3-1.1-1.9-1.8-.5.7-1.1 1.3-1.8 1.8z"/><path d="m57.8 61.1c.2-.2.6-.5 1.6-1.5 0-.6 0-.6 0-1.3-.5 0-.9.1-1.4.1l-.1-1h.3l1.2-.1c0-.2 0-.5 0-.7s0-.3 0-.4v-.1c0-.1 0-.3 0-.4h1.2c-.1.3-.1.6-.1.9v.4.2h.1l.3.4c-.2.2-.4.4-.5.6v.6l.2-.2c.7-.6 1.7-1 2.6-1 .7 0 1.3.3 1.8.7.5.5.7 1.2.7 1.9 0 1.1-.5 2.1-1.4 2.6-.5.2-1.1.3-1.6.3s-.9-.1-1.3-.2c0-.4 0-.8-.2-1.2.5.2 1.1.3 1.6.3 1 0 1.8-.7 1.9-1.7 0-.1 0-.1 0-.2.1-.8-.5-1.5-1.3-1.6-.1 0-.1 0-.2 0-1 .1-2 .6-2.6 1.4v1.1c0 1.3 0 2.3.1 2.7h-1.2c.1-.5.1-1 .1-1.5v-.8c0-.2 0-.4 0-.5-.1.2-.3.3-.4.4-.3.2-.5.5-.7.8z"/><path d="m74.2 63.2h-.4c-.7.1-1.9.1-2.5.1-1.7 0-2.4-.3-2.7-1.2-.2-.8-.2-1.7-.2-2.5 0-.1 0-.2 0-.9-.6 0-1.1.1-1.7.2l-.1-1.1h.4 1.5c0-.1 0-.2 0-.3 0-.5 0-1-.1-1.5h1.2c-.1.6-.1 1.2-.1 1.8l2.6-.1c.1-.6.1-1.2 0-1.8h1.1v.6 1.1c.6 0 1.2 0 1.8-.1v1.1c-.2 0-.3 0-.5 0h-1.3c0 .7-.1 1.3-.2 1.9-.2.4-.6.7-1.1.7s-.9-.1-1.3-.3c0-.2 0-.2 0-.4 0-.3 0-.5-.1-.8.4.2.8.4 1.2.4.2 0 .3-.1.4-.5s.1-.8.1-1.1c-1.4 0-1.4 0-2.6.1v.2.5.2c0 .5 0 1.5.1 1.7.1.8.5.9 1.9.9.9 0 1.8-.1 2.6-.3z"/><path d="m76.6 63.5c0-.1 0-.1 0-.3-.2-1-.3-1.9-.2-2.9 0-.8 0-1.6.1-2.4 0-.3 0-.3.2-1.3 0-.2.1-.4.1-.7l1.2.1c-.5 1.5-.7 3-.7 4.6v.5.2.2l.1-.3.1-.3.2-.4s0 0 .1-.3l.8.3c-.5.9-.8 1.8-.9 2.8v.2zm2-6c.5.1 1.1.2 1.7.2h.8c0-.5 0-1 0-1.4 0-.1 0-.3 0-.4h1.1c-.1.4-.1.9-.1 1.3v.4c.4 0 .8-.1 1.2-.2l.2-.1h.1v1c-.1 0-.2 0-.3 0-.3.1-.8.2-1.3.2v.2c0 .5 0 .5.1 2.1.5.2 1 .5 1.4.8.1.1.2.1.3.2l-.4 1.1c-.2-.2-.4-.4-.7-.6l-.6-.4v.1c0 .2 0 .3-.1.5-.3.6-1 .9-1.7.8-1.2 0-1.9-.6-1.9-1.5s.8-1.5 1.9-1.5c.3 0 .6 0 .8.1 0-.2 0-.7-.1-1.9h-.8c-.3 0-.7 0-1.1 0h-.6zm1.8 3.9c-.6 0-.9.2-.9.6s.3.6.8.6c.3 0 .5-.1.7-.3.1-.1.1-.3.1-.5v-.2c-.2-.2-.4-.2-.7-.2z"/><path d="m87.3 60.1c-.6.5-.8.8-.8 1.2 0 .6.7.8 2.2.8 1 0 1.9-.1 2.8-.4l.1 1.2c-.1 0-.3 0-.4 0-.8.1-1.6.2-2.4.2s-1.5-.1-2.3-.3c-.7-.2-1.2-.8-1.2-1.5.1-.8.5-1.6 1.2-2zm-1.4-3.8c.9.2 1.8.3 2.7.2.8 0 1.6 0 2.4-.2v1c-.8.4-1.6.9-2.4 1.5l-.8-.6c.5-.3.9-.6 1.3-.8-.5.1-.9.1-1.4.1-.6 0-1.1 0-1.7-.1h-.3z"/><path d="m93.1 57c.7.1 1.3.2 2 .2.1-.5.2-1 .2-1.5l1.2.1c-.1.2-.1.3-.2.5-.2.7-.2.7-.2.8.7 0 1.7-.1 2.3-.2.4 0 .8-.1 1.2-.2l.1 1.1h-.5c-1.3.1-2.1.2-3.2.2-.2.6-.4 1.3-.7 1.9.7-.4 1.5-.6 2.3-.6 1.6 0 2.6.7 2.6 1.8 0 1.3-1.3 2.2-3.3 2.2-.8 0-1.6-.1-2.3-.3 0-.4 0-.8-.1-1.2.7.3 1.5.4 2.3.4 1.3 0 2.2-.5 2.2-1.2 0-.6-.5-.9-1.5-.9-.7 0-1.4.2-2 .4-.3.1-.5.3-.7.5l-1.1-.4c.2-.3.3-.5.4-.8.3-.7.5-1.3.8-2-.5 0-.9 0-1.4-.1h-.5z"/><path d="m103.5 57.6c-.2.7-.3 1.5-.4 2.2v.3c.8-.6 1.8-.9 2.8-.9 1.6 0 2.6.8 2.6 1.9 0 .7-.4 1.4-.9 1.8-.7.5-1.6.7-2.4.6-.8 0-1.6-.1-2.3-.3 0-.4 0-.8-.1-1.2.8.3 1.6.4 2.4.5 1.3 0 2.2-.5 2.2-1.3 0-.6-.6-1-1.5-1-.8 0-1.6.2-2.3.7-.2.1-.3.2-.4.4h-1.2c0-.2 0-.2.1-.5.1-.6.2-1.6.4-2.7 0-.2 0-.4 0-.5zm.1-1.8c1.1.5 2.2.8 3.4 1l-.4 1c-1.2-.2-2.4-.6-3.5-1.1z"/><path d="m33.4 42.7c-1.1 1-2.6 1.6-4.1 1.5-1.8.1-3.5-.7-4.6-2-1.8-2-1.7-5.4-1.7-10.1s0-8.2 1.7-10.2c1.1-1.3 2.8-2.1 4.6-2 1.5-.1 3 .5 4.1 1.5 1.3 1.4 1.9 3.1 1.9 5h-3.7c0-.8-.2-1.6-.6-2.3-.4-.6-1-.9-1.7-.9-.7-.1-1.4.3-1.8.9-.7 1.1-.8 3.5-.8 7.9s.2 6.8.8 7.9c.7 1 2.1 1.2 3.1.5.2-.1.3-.3.5-.5.4-.7.6-1.5.6-2.3h3.7c0 1.8-.7 3.7-2 5.1"/><path d="m47.3 42.3c-1 1.3-2.5 2-4.2 1.9-1.6.1-3.2-.6-4.2-1.9-1.1-1.5-1.2-4.2-1.2-7.2s.2-5.7 1.2-7.2c1-1.3 2.5-2 4.2-1.8 1.6-.2 3.2.5 4.2 1.8 1.1 1.5 1.2 4.2 1.2 7.2s-.1 5.7-1.2 7.2m-2.8-12.3c-.5-.8-1.5-1-2.3-.5-.2.1-.3.3-.5.5-.5.8-.5 2.6-.5 5.2s0 4.4.5 5.2 1.6.9 2.3.4c.2-.1.3-.2.4-.4.5-.8.5-2.6.5-5.2s.1-4.4-.4-5.2"/><path d="m58.4 43.9v-12.6c0-1.4-.8-2-1.7-2s-1.7.7-1.7 2v12.6h-3.5v-17.5h3.4v1.3c.3-.4.7-.8 1.2-1.1s1.1-.5 1.8-.5c1.2-.1 2.4.4 3.2 1.4.7.8 1 1.8 1 3.8v12.6z"/><path d="m67.8 42.9c-1.2-1.1-1.9-2.7-1.8-4.3v-9.5h-1.8v-2.7h1.8v-4.5h3.5v4.5h2.5v2.7h-2.4v9.3c0 1.6.8 2.4 2.5 2.4v3.1c-1.6.2-3.1-.2-4.3-1"/><path d="m81 43.9v-1.5c-.3.5-.7.9-1.1 1.2-.6.4-1.3.6-2 .6-1.3.1-2.5-.5-3.3-1.5-.8-1.2-1.2-2.5-1.1-3.9 0-1.5.6-2.9 1.7-3.9 1.1-.9 2.6-1.3 4-1.2h1.6v-2.5c0-1.3-.6-2-1.7-2-.4 0-.9.2-1.2.5-.4.5-.6 1-.5 1.6h-3.5c0-1.4.5-2.8 1.5-3.8 1-.9 2.3-1.4 3.7-1.4 1.4-.1 2.7.4 3.7 1.3 1.1 1.1 1.6 2.6 1.5 4.1v12.3h-3.3zm-.2-7.8h-1.2c-.7-.1-1.3.1-1.8.5-.5.6-.7 1.3-.7 2 0 1.6.6 2.4 1.8 2.4s1.9-.9 1.9-2.3z"/><path d="m96.3 42.9c-1 .9-2.4 1.4-3.7 1.3-1.6.1-3.2-.6-4.2-1.9-1.1-1.5-1.2-4.2-1.2-7.2s.1-5.7 1.2-7.2c1-1.3 2.5-2 4.2-1.8 1.3-.1 2.7.3 3.7 1.2 1 1.2 1.6 2.6 1.6 4.2h-3.5c0-.6-.1-1.1-.4-1.6-.3-.4-.8-.7-1.3-.6-.5 0-1.1.3-1.4.7-.5.8-.5 2.6-.5 5.2s0 4.4.5 5.2c.3.5.8.7 1.4.7.5 0 1-.2 1.3-.6.3-.5.5-1.1.5-1.7h3.5c-.2 1.5-.7 3-1.7 4.1"/><path d="m102.9 42.9c-1.3-1-1.9-2.6-1.8-4.3v-9.6h-1.8v-2.7h1.8v-4.5h3.5v4.5h2.4v2.7h-2.4v9.3c0 1.6.8 2.4 2.5 2.4v3.1c-1.4.3-2.9-.1-4.2-.9"/></g></svg>