<svg viewBox="0 0 232.45 30" xmlns="http://www.w3.org/2000/svg"><g fill="#fff"><path d="m15 0h-6.3a2.7 2.7 0 1 0 0 5.4h6.3a9.6 9.6 0 0 1 3.14 18.67 2.7 2.7 0 0 0 .76 5.29 2.76 2.76 0 0 0 .82-.13h.06a15 15 0 0 0 -4.78-29.23z"/><path d="m11.7 24.6h-4.5a1.81 1.81 0 0 1 -1.8-1.8v-14.1a2.71 2.71 0 0 0 -2.7-2.7 2.71 2.71 0 0 0 -2.7 2.7v18.6a2.71 2.71 0 0 0 2.7 2.7h9a2.7 2.7 0 1 0 0-5.4z"/><path d="m45 6.4a1.23 1.23 0 0 1 1.25-1.4 1.25 1.25 0 0 1 1.29 1.4v15.6a.15.15 0 0 0 .17.17h8.41a1.18 1.18 0 1 1 0 2.36h-9.89a1.15 1.15 0 0 1 -1.23-1.23z"/><path d="m59.41 21.16a10.2 10.2 0 0 1 -.41-3.45 10.38 10.38 0 0 1 .43-3.45 5.24 5.24 0 0 1 5.33-3.67 5.2 5.2 0 0 1 5.36 3.64 10.22 10.22 0 0 1 .45 3.31.87.87 0 0 1 -.94.91h-8a.15.15 0 0 0 -.17.17 5.09 5.09 0 0 0 .23 1.66 3.35 3.35 0 0 0 3.45 2.36 5 5 0 0 0 3.28-1.17 1.32 1.32 0 0 1 .82-.34 1 1 0 0 1 1 1 1.16 1.16 0 0 1 -.37.85 7 7 0 0 1 -4.9 1.89c-2.88 0-4.79-1.32-5.56-3.71zm8.49-4.62c.12 0 .17-.05.17-.17a4.61 4.61 0 0 0 -.2-1.54 3.37 3.37 0 0 0 -6.27 0 4.88 4.88 0 0 0 -.2 1.54.15.15 0 0 0 .17.17z"/><path d="m84.67 23.55a1.14 1.14 0 0 1 -1.22 1.14 1.27 1.27 0 0 1 -1.06-.59l-.54-.86a5.17 5.17 0 0 1 -4.19 1.63c-3 0-4.81-1.52-4.81-4.11 0-2.82 1.93-4.22 5.33-4.22h3.1c.12 0 .17-.05.17-.17v-.65c0-1.91-.88-3-3.27-3a6.41 6.41 0 0 0 -2.8.69 1.74 1.74 0 0 1 -.68.2 1 1 0 0 1 -1-1 1.09 1.09 0 0 1 .57-1 7.66 7.66 0 0 1 4.16-1c3.65 0 5.36 1.73 5.36 5.1v4.9a2.66 2.66 0 0 0 .21 1.39l.48.88a1.41 1.41 0 0 1 .19.67zm-3.25-3.42v-1.51a.15.15 0 0 0 -.17-.17h-2.73c-2.34 0-3.4.69-3.4 2.23s1 2.13 2.86 2.13c2.1 0 3.44-.99 3.44-2.68z"/><path d="m95.9 23.41v-.41a4.14 4.14 0 0 1 -3.9 1.87 4.74 4.74 0 0 1 -4.71-3.43 11.78 11.78 0 0 1 -.48-3.73 11.7 11.7 0 0 1 .48-3.7 4.74 4.74 0 0 1 4.71-3.42c2 0 3.25.77 3.87 1.82v-6.1a1.2 1.2 0 1 1 2.4 0v17.1a1.2 1.2 0 1 1 -2.4 0zm-.31-2.91a8.72 8.72 0 0 0 .31-2.79 8.63 8.63 0 0 0 -.31-2.71 3.19 3.19 0 0 0 -6 0 8.63 8.63 0 0 0 -.31 2.76 8.72 8.72 0 0 0 .31 2.79 3.19 3.19 0 0 0 6 0z"/><path d="m110 6.31a1.07 1.07 0 0 1 1.14-1.14h4.93c3.76 0 6.07 1.48 7 4.42a15.22 15.22 0 0 1 .57 5.27 15.22 15.22 0 0 1 -.57 5.27c-.94 2.94-3.25 4.42-7 4.42h-4.93a1.06 1.06 0 0 1 -1.14-1.14zm2.71 15.88h3.19c2.56 0 4.05-.8 4.73-2.91a14.24 14.24 0 0 0 .46-4.42 14.24 14.24 0 0 0 -.46-4.42c-.68-2.11-2.17-2.9-4.73-2.9h-3.19c-.12 0-.17 0-.17.17v14.29a.15.15 0 0 0 .15.19z"/><path d="m126.91 21.16a10.2 10.2 0 0 1 -.46-3.45 10.38 10.38 0 0 1 .43-3.45 5.74 5.74 0 0 1 10.69 0 10.22 10.22 0 0 1 .45 3.31.87.87 0 0 1 -.94.91h-8a.15.15 0 0 0 -.17.17 5.09 5.09 0 0 0 .23 1.66 3.35 3.35 0 0 0 3.45 2.36 5 5 0 0 0 3.28-1.17 1.32 1.32 0 0 1 .82-.34 1 1 0 0 1 1 1 1.16 1.16 0 0 1 -.37.85 7 7 0 0 1 -4.9 1.89c-2.83-.03-4.74-1.35-5.51-3.74zm8.49-4.62c.12 0 .17-.05.17-.17a4.61 4.61 0 0 0 -.2-1.54 3.37 3.37 0 0 0 -6.27 0 4.88 4.88 0 0 0 -.2 1.54.15.15 0 0 0 .17.17z"/><path d="m140.82 23.35a1.17 1.17 0 0 1 -.57-1 1.1 1.1 0 0 1 1.11-1.09 1.51 1.51 0 0 1 .8.26 7.18 7.18 0 0 0 3.82 1.2c2 0 3-.86 3-2.05s-.51-1.71-2.68-1.94l-1.42-.15c-2.68-.28-4.08-1.65-4.08-3.84 0-2.6 1.85-4.16 5.05-4.16a8.33 8.33 0 0 1 4.07 1 1.1 1.1 0 0 1 .72 1 1 1 0 0 1 -1 1 2 2 0 0 1 -.86-.23 7.06 7.06 0 0 0 -3-.71c-1.71 0-2.59.77-2.59 1.88s.63 1.65 2.68 1.85l1.42.14c2.85.32 4.11 1.66 4.11 3.88 0 2.68-1.94 4.45-5.56 4.45a8.74 8.74 0 0 1 -5.02-1.49z"/><path d="m154.05 6.59a1.57 1.57 0 0 1 3.14 0 1.57 1.57 0 1 1 -3.14 0zm.37 5.45a1.2 1.2 0 1 1 2.39 0v11.37a1.2 1.2 0 1 1 -2.39 0z"/><path d="m168.6 12.38v-.38a1.2 1.2 0 1 1 2.4 0v11.87c0 4.07-2.17 6.13-6 6.13a6.27 6.27 0 0 1 -4.33-1.63 1.1 1.1 0 0 1 -.34-.77 1.06 1.06 0 0 1 1.08-1.11 1.66 1.66 0 0 1 1 .37 4.55 4.55 0 0 0 2.71.91c2.19 0 3.47-1.08 3.47-3.7v-1.49c-.68 1.14-1.82 1.8-3.81 1.8a4.56 4.56 0 0 1 -4.61-3.38 10.74 10.74 0 0 1 -.46-3.51 10.67 10.67 0 0 1 .46-3.5 4.56 4.56 0 0 1 4.59-3.39 4.14 4.14 0 0 1 3.81 1.79zm-.31 7.67a7.74 7.74 0 0 0 .31-2.57 7.55 7.55 0 0 0 -.31-2.53 3 3 0 0 0 -5.82 0 7.82 7.82 0 0 0 -.31 2.53 8 8 0 0 0 .31 2.57 3 3 0 0 0 5.82 0z"/><path d="m174.75 12a1.2 1.2 0 1 1 2.39 0v.4a4.31 4.31 0 0 1 3.86-1.81c3 0 4.74 2 4.74 5.13v7.69a1.2 1.2 0 1 1 -2.4 0v-7.12c0-2.2-1-3.48-3.05-3.48a3.07 3.07 0 0 0 -3.14 3.33v7.27a1.2 1.2 0 1 1 -2.39 0z"/><path d="m196.05 6.59a1.57 1.57 0 0 1 3.14 0 1.57 1.57 0 1 1 -3.14 0zm.37 5.45a1.2 1.2 0 1 1 2.4 0v11.37a1.2 1.2 0 1 1 -2.4 0z"/><path d="m202.5 12a1.2 1.2 0 1 1 2.39 0v.4a4.31 4.31 0 0 1 3.82-1.85c3 0 4.73 2 4.73 5.13v7.69a1.2 1.2 0 1 1 -2.39 0v-7.08c0-2.2-1-3.48-3.05-3.48a3.07 3.07 0 0 0 -3.14 3.33v7.27a1.2 1.2 0 1 1 -2.39 0z"/><path d="m216.82 21.19a12.1 12.1 0 0 1 -.42-3.48 12 12 0 0 1 .42-3.45 5.78 5.78 0 0 1 9.75-1.68 1.42 1.42 0 0 1 .34.88 1 1 0 0 1 -1 1.06 1.44 1.44 0 0 1 -1.11-.52 3.19 3.19 0 0 0 -2.59-1.14 3 3 0 0 0 -3.05 2.14 9 9 0 0 0 -.31 2.76 9.08 9.08 0 0 0 .31 2.79 3 3 0 0 0 3.05 2.14 3.19 3.19 0 0 0 2.59-1.14 1.44 1.44 0 0 1 1.06-.57 1 1 0 0 1 1 1.06 1.42 1.42 0 0 1 -.34.88 5.77 5.77 0 0 1 -9.75-1.68z"/><path d="m230.83 21.44a1.63 1.63 0 1 1 -1.63 1.63 1.65 1.65 0 0 1 1.63-1.63z"/></g></svg>